<svg version="1.1" id="Layer_1" xmlns="http://www.w3.org/2000/svg" xmlns:xlink="http://www.w3.org/1999/xlink" x="0px" y="0px"
	 width="100%" viewBox="0 0 1080 1080" enable-background="new 0 0 1080 1080" xml:space="preserve">
<path fill="#000000" opacity="1.000000" stroke="none" 
	d="
M1.000000,415.000000 
	C1.000000,276.682587 1.000000,138.865143 1.000000,1.023858 
	C360.942535,1.023858 720.885071,1.023858 1080.913818,1.023858 
	C1080.913818,360.900970 1080.913818,720.802002 1080.913818,1080.851562 
	C721.000061,1080.851562 361.000031,1080.851562 1.000000,1080.851562 
	C1.000000,859.114441 1.000000,637.307190 1.000000,415.000000 
M362.500000,111.000038 
	C446.913086,111.000038 531.326172,111.000038 615.998535,111.000038 
	C615.998535,113.644783 615.998596,115.624947 615.998596,117.605110 
	C615.998596,173.598328 616.081909,229.591782 615.923157,285.584564 
	C615.893982,295.896454 617.579468,305.813751 620.903931,315.438110 
	C625.282410,328.113831 633.118408,338.436768 643.438416,346.982422 
	C657.708008,358.798553 674.160828,364.868164 692.549805,364.929535 
	C749.708923,365.120300 806.869080,364.999390 864.028870,364.999390 
	C865.950195,364.999390 867.871582,364.999390 870.000000,364.999390 
	C870.000000,367.694305 870.000000,369.680237 870.000000,371.666168 
	C870.000000,429.659149 869.938782,487.652374 870.151917,545.644592 
	C870.164734,549.122559 871.720398,553.020447 873.676758,555.984619 
	C879.176636,564.317505 887.262939,566.940125 897.265808,567.276184 
	C908.977295,567.669739 921.235779,554.176086 921.180664,543.449646 
	C920.826782,474.626434 921.081116,405.800232 920.817261,336.976227 
	C920.799622,332.390717 919.253540,326.978302 916.515625,323.410736 
	C910.958618,316.169586 904.214539,309.813293 897.752014,303.298340 
	C881.059631,286.470490 864.254333,269.754700 847.494141,252.994186 
	C837.156677,242.656448 826.819275,232.318604 816.481628,221.980942 
	C806.139404,211.638672 795.797119,201.296539 785.454773,190.954376 
	C774.998962,180.498672 764.543152,170.043030 754.087463,159.587189 
	C743.512390,149.012024 732.999634,138.373550 722.342102,127.882210 
	C714.498413,120.160828 706.330322,112.766609 698.553406,104.980347 
	C690.184448,96.601334 682.122925,87.915947 673.887024,79.403244 
	C670.486633,75.888588 666.735352,72.684608 663.576904,68.970863 
	C657.787476,62.163612 650.781311,59.826973 641.787781,59.844212 
	C520.636169,60.076466 399.483978,60.056278 278.332153,59.899105 
	C267.986298,59.885685 258.025330,61.389446 248.524567,65.008385 
	C234.107147,70.500153 219.621811,76.127327 208.277328,87.238449 
	C200.505737,94.850159 192.077957,101.982704 185.422852,110.487106 
	C179.401077,118.182213 175.025879,127.264870 170.569641,136.062408 
	C164.217529,148.602936 161.240021,162.389908 161.196640,176.175583 
	C160.845901,287.660980 160.999924,399.148010 160.999969,510.634521 
	C160.999985,522.133118 160.859451,533.634094 161.054626,545.129395 
	C161.165680,551.670227 164.556702,556.671631 169.274612,561.080444 
	C174.944199,566.378601 181.655884,566.879578 188.937973,567.165222 
	C198.778183,567.551208 212.275375,555.877747 212.235504,544.087219 
	C211.844894,428.602509 211.959625,313.115906 212.085800,197.630005 
	C212.094757,189.437546 212.663330,181.125748 214.123306,173.078384 
	C217.797119,152.828293 228.905563,136.861877 245.399582,125.090393 
	C258.840607,115.497795 274.486969,111.211777 291.009033,111.056244 
	C314.504120,110.835060 338.002838,111.000038 362.500000,111.000038 
M467.500000,666.006470 
	C374.694763,666.006531 281.889526,666.049255 189.084351,665.964783 
	C173.404114,665.950500 160.413956,675.726562 160.796356,693.870300 
	C161.103516,708.444397 172.677948,719.036316 186.328705,719.033630 
	C422.757477,718.986938 659.186218,719.022156 895.614990,718.959229 
	C915.110840,718.954102 924.852112,702.173462 920.019958,684.612061 
	C916.547302,671.991638 907.494812,666.102478 893.871765,666.089478 
	C752.081299,665.954041 610.290588,666.006287 467.500000,666.006470 
M543.500000,819.000000 
	C424.500671,819.000000 305.501312,818.965271 186.502243,819.128784 
	C181.814102,819.135254 176.592300,820.044006 172.544434,822.238770 
	C161.338593,828.314697 159.177505,841.163879 161.579239,851.762878 
	C162.772751,857.029907 164.379440,863.444214 170.256577,865.840515 
	C176.021378,868.191101 182.278915,870.783813 188.322800,870.790161 
	C423.320709,871.037354 658.318848,870.999878 893.317017,870.999817 
	C894.483704,870.999817 895.768738,871.322632 896.797424,870.945740 
	C902.677612,868.791077 910.190308,868.034729 914.008850,863.902283 
	C924.139832,852.938538 923.816589,836.717590 913.864990,825.433655 
	C909.019165,819.939026 902.277039,819.038513 895.497253,819.035645 
	C778.498169,818.986206 661.499084,819.000000 543.500000,819.000000 
M540.500000,971.000000 
	C482.840393,971.000000 425.180817,971.000000 367.521210,971.000000 
	C306.695251,971.000000 245.869156,970.937500 185.043472,971.065735 
	C175.643417,971.085571 167.801788,974.708252 163.671707,983.831055 
	C159.435745,993.187561 159.475677,1002.368530 164.791458,1011.511475 
	C168.668213,1018.179321 174.012024,1021.983948 181.753860,1021.984558 
	C421.058167,1022.003479 660.362488,1022.001953 899.666809,1021.966003 
	C901.586670,1021.965698 903.601257,1021.734375 905.410583,1021.129211 
	C916.496826,1017.421509 922.996216,1004.962219 920.976135,991.547974 
	C919.246460,980.062073 908.934326,971.007996 897.456848,971.006958 
	C778.804565,970.995728 660.152283,971.000000 540.500000,971.000000 
z"/>
<path fill="#007BFF" opacity="1.000000" stroke="none" 
	d="
M362.000000,111.000038 
	C338.002838,111.000038 314.504120,110.835060 291.009033,111.056244 
	C274.486969,111.211777 258.840607,115.497795 245.399582,125.090393 
	C228.905563,136.861877 217.797119,152.828293 214.123306,173.078384 
	C212.663330,181.125748 212.094757,189.437546 212.085800,197.630005 
	C211.959625,313.115906 211.844894,428.602509 212.235504,544.087219 
	C212.275375,555.877747 198.778183,567.551208 188.937973,567.165222 
	C181.655884,566.879578 174.944199,566.378601 169.274612,561.080444 
	C164.556702,556.671631 161.165680,551.670227 161.054626,545.129395 
	C160.859451,533.634094 160.999985,522.133118 160.999969,510.634521 
	C160.999924,399.148010 160.845901,287.660980 161.196640,176.175583 
	C161.240021,162.389908 164.217529,148.602936 170.569641,136.062408 
	C175.025879,127.264870 179.401077,118.182213 185.422852,110.487106 
	C192.077957,101.982704 200.505737,94.850159 208.277328,87.238449 
	C219.621811,76.127327 234.107147,70.500153 248.524567,65.008385 
	C258.025330,61.389446 267.986298,59.885685 278.332153,59.899105 
	C399.483978,60.056278 520.636169,60.076466 641.787781,59.844212 
	C650.781311,59.826973 657.787476,62.163612 663.576904,68.970863 
	C666.735352,72.684608 670.486633,75.888588 673.887024,79.403244 
	C682.122925,87.915947 690.184448,96.601334 698.553406,104.980347 
	C706.330322,112.766609 714.498413,120.160828 722.342102,127.882210 
	C732.999634,138.373550 743.512390,149.012024 754.087463,159.587189 
	C764.543152,170.043030 774.998962,180.498672 785.454773,190.954376 
	C795.797119,201.296539 806.139404,211.638672 816.481628,221.980942 
	C826.819275,232.318604 837.156677,242.656448 847.494141,252.994186 
	C864.254333,269.754700 881.059631,286.470490 897.752014,303.298340 
	C904.214539,309.813293 910.958618,316.169586 916.515625,323.410736 
	C919.253540,326.978302 920.799622,332.390717 920.817261,336.976227 
	C921.081116,405.800232 920.826782,474.626434 921.180664,543.449646 
	C921.235779,554.176086 908.977295,567.669739 897.265808,567.276184 
	C887.262939,566.940125 879.176636,564.317505 873.676758,555.984619 
	C871.720398,553.020447 870.164734,549.122559 870.151917,545.644592 
	C869.938782,487.652374 870.000000,429.659149 870.000000,371.666168 
	C870.000000,369.680237 870.000000,367.694305 870.000000,364.999390 
	C867.871582,364.999390 865.950195,364.999390 864.028870,364.999390 
	C806.869080,364.999390 749.708923,365.120300 692.549805,364.929535 
	C674.160828,364.868164 657.708008,358.798553 643.438416,346.982422 
	C633.118408,338.436768 625.282410,328.113831 620.903931,315.438110 
	C617.579468,305.813751 615.893982,295.896454 615.923157,285.584564 
	C616.081909,229.591782 615.998596,173.598328 615.998596,117.605110 
	C615.998596,115.624947 615.998535,113.644783 615.998535,111.000038 
	C531.326172,111.000038 446.913086,111.000038 362.000000,111.000038 
M668.000244,177.500000 
	C668.000244,213.827774 667.808533,250.157043 668.094604,286.482574 
	C668.208923,300.993103 678.310425,311.914459 693.419983,311.955994 
	C737.912842,312.078247 782.406250,312.002106 826.899475,311.985748 
	C828.110657,311.985321 829.321716,311.781830 830.532837,311.673004 
	C829.985474,312.058868 829.438049,312.444733 828.890686,312.830597 
	C775.200928,258.931976 721.511230,205.033340 668.000244,151.314117 
	C668.000244,159.258713 668.000244,167.879364 668.000244,177.500000 
z"/>
<path fill="#007BFF" opacity="1.000000" stroke="none" 
	d="
M468.000000,666.006470 
	C610.290588,666.006287 752.081299,665.954041 893.871765,666.089478 
	C907.494812,666.102478 916.547302,671.991638 920.019958,684.612061 
	C924.852112,702.173462 915.110840,718.954102 895.614990,718.959229 
	C659.186218,719.022156 422.757477,718.986938 186.328705,719.033630 
	C172.677948,719.036316 161.103516,708.444397 160.796356,693.870300 
	C160.413956,675.726562 173.404114,665.950500 189.084351,665.964783 
	C281.889526,666.049255 374.694763,666.006531 468.000000,666.006470 
z"/>
<path fill="#007BFF" opacity="1.000000" stroke="none" 
	d="
M544.000000,819.000000 
	C661.499084,819.000000 778.498169,818.986206 895.497253,819.035645 
	C902.277039,819.038513 909.019165,819.939026 913.864990,825.433655 
	C923.816589,836.717590 924.139832,852.938538 914.008850,863.902283 
	C910.190308,868.034729 902.677612,868.791077 896.797424,870.945740 
	C895.768738,871.322632 894.483704,870.999817 893.317017,870.999817 
	C658.318848,870.999878 423.320709,871.037354 188.322800,870.790161 
	C182.278915,870.783813 176.021378,868.191101 170.256577,865.840515 
	C164.379440,863.444214 162.772751,857.029907 161.579239,851.762878 
	C159.177505,841.163879 161.338593,828.314697 172.544434,822.238770 
	C176.592300,820.044006 181.814102,819.135254 186.502243,819.128784 
	C305.501312,818.965271 424.500671,819.000000 544.000000,819.000000 
z"/>
<path fill="#007BFF" opacity="1.000000" stroke="none" 
	d="
M541.000000,971.000000 
	C660.152283,971.000000 778.804565,970.995728 897.456848,971.006958 
	C908.934326,971.007996 919.246460,980.062073 920.976135,991.547974 
	C922.996216,1004.962219 916.496826,1017.421509 905.410583,1021.129211 
	C903.601257,1021.734375 901.586670,1021.965698 899.666809,1021.966003 
	C660.362488,1022.001953 421.058167,1022.003479 181.753860,1021.984558 
	C174.012024,1021.983948 168.668213,1018.179321 164.791458,1011.511475 
	C159.475677,1002.368530 159.435745,993.187561 163.671707,983.831055 
	C167.801788,974.708252 175.643417,971.085571 185.043472,971.065735 
	C245.869156,970.937500 306.695251,971.000000 367.521210,971.000000 
	C425.180817,971.000000 482.840393,971.000000 541.000000,971.000000 
z"/>
<path fill="#000000" opacity="1.000000" stroke="none" 
	d="
M668.000244,177.000000 
	C668.000244,167.879364 668.000244,159.258713 668.000244,151.314117 
	C721.511230,205.033340 775.200928,258.931976 828.890686,312.830597 
	C829.438049,312.444733 829.985474,312.058868 830.532837,311.673004 
	C829.321716,311.781830 828.110657,311.985321 826.899475,311.985748 
	C782.406250,312.002106 737.912842,312.078247 693.419983,311.955994 
	C678.310425,311.914459 668.208923,300.993103 668.094604,286.482574 
	C667.808533,250.157043 668.000244,213.827774 668.000244,177.000000 
z"/>
</svg>