<svg version="1.1" id="Layer_1" xmlns="http://www.w3.org/2000/svg" xmlns:xlink="http://www.w3.org/1999/xlink" x="0px" y="0px"
	 width="100%" viewBox="0 0 159 190" enable-background="new 0 0 159 190" xml:space="preserve">
<path fill="#FAFCFF" opacity="1.000000" stroke="none" 
	d="
M1.000000,67.000000 
	C1.000000,44.666672 1.000000,22.833344 1.000000,1.000012 
	C53.999981,1.000008 106.999962,1.000008 159.999954,1.000004 
	C159.999969,64.333305 159.999969,127.666603 159.999985,190.999939 
	C107.000046,190.999954 54.000092,190.999954 1.000068,190.999969 
	C1.000000,149.833328 1.000000,108.666664 1.000000,67.000000 
M48.500244,4.682207 
	C43.167130,4.682496 37.832447,4.599413 32.501221,4.699959 
	C20.395983,4.928261 9.476741,15.696732 9.399758,27.818348 
	C9.258992,49.983036 9.356911,72.149261 9.368803,94.314835 
	C9.369336,95.308586 9.116868,96.777725 9.646364,97.207817 
	C11.308588,98.557961 13.807746,100.805817 15.020306,100.317253 
	C16.723043,99.631187 18.588196,96.811638 18.611418,94.883224 
	C18.864241,73.887291 18.729368,52.887066 18.787813,31.888252 
	C18.820250,20.233616 24.693392,14.084036 36.157776,13.995898 
	C54.655773,13.853686 73.155678,13.951213 91.654739,13.975679 
	C92.779587,13.977167 93.904099,14.225942 95.571075,14.424129 
	C95.571075,16.223688 95.571030,17.846876 95.571075,19.470064 
	C95.571297,28.136307 95.529144,36.802811 95.582451,45.468727 
	C95.649956,56.442444 101.724808,62.541630 112.601021,62.594460 
	C120.267128,62.631695 127.933563,62.601707 135.599854,62.601734 
	C138.357941,62.601746 141.116013,62.601738 144.315186,62.601738 
	C144.315186,73.708679 144.233612,84.010529 144.391220,94.308716 
	C144.419220,96.139061 145.014603,98.324661 146.158691,99.642372 
	C146.886703,100.480865 149.689011,100.705246 150.533829,99.990562 
	C151.972305,98.773659 153.403976,96.616951 153.441238,94.826050 
	C153.690674,82.831825 153.725266,70.826096 153.428436,58.834034 
	C153.375015,56.676079 151.923019,54.111111 150.337616,52.501427 
	C135.487122,37.423477 120.530113,22.448084 105.406067,7.645167 
	C103.736458,6.011015 100.842178,4.845952 98.495880,4.811133 
	C82.166931,4.568816 65.832703,4.682470 48.500244,4.682207 
M70.500000,177.029068 
	C53.181149,177.029129 35.862198,177.002457 18.543583,177.066330 
	C16.589539,177.073532 14.278193,177.045135 12.784983,178.026260 
	C11.280426,179.014832 9.579071,181.405350 9.818159,182.881210 
	C10.071581,184.445541 12.348763,185.930222 14.050796,186.917435 
	C15.052287,187.498322 16.654190,187.053787 17.986044,187.053894 
	C42.465561,187.055862 66.945084,187.055695 91.424599,187.055206 
	C110.075661,187.054840 128.726761,187.030533 147.377731,187.073929 
	C150.652527,187.081558 153.049896,186.009094 153.302429,182.486267 
	C153.563400,178.846039 150.880112,177.674103 147.927872,177.115967 
	C146.638977,176.872284 145.271301,177.031448 143.939392,177.031296 
	C119.792931,177.028412 95.646461,177.029129 70.500000,177.029068 
M146.301971,129.317932 
	C149.318878,129.302719 152.589691,129.665680 153.295731,125.510025 
	C153.906006,121.917915 151.518539,119.994431 146.519745,119.993729 
	C103.232674,119.987648 59.945599,119.990028 16.658525,119.990982 
	C15.659693,119.991005 14.297768,119.591537 13.731635,120.089958 
	C12.173348,121.461853 10.070443,123.114983 9.878326,124.845100 
	C9.732901,126.154747 11.972529,128.112274 13.571637,129.100220 
	C14.668953,129.778152 16.488235,129.314987 17.984804,129.315170 
	C60.439434,129.320160 102.894066,129.319199 146.301971,129.317932 
M10.306689,155.953934 
	C13.027426,156.768311 15.744598,158.277115 18.469442,158.291107 
	C50.598244,158.456009 82.728195,158.398621 114.857841,158.396454 
	C125.678658,158.395721 136.499481,158.392807 147.320282,158.375671 
	C150.746841,158.370239 153.338806,157.115997 153.281418,153.267197 
	C153.226242,149.565186 150.634521,148.759048 147.423141,148.760910 
	C103.473808,148.786514 59.524437,148.783829 15.575085,148.764923 
	C11.176425,148.763031 8.917494,150.511185 10.306689,155.953934 
z"/>
<path fill="#0D82FF" opacity="1.000000" stroke="none" 
	d="
M49.000206,4.682106 
	C65.832703,4.682470 82.166931,4.568816 98.495880,4.811133 
	C100.842178,4.845952 103.736458,6.011015 105.406067,7.645167 
	C120.530113,22.448084 135.487122,37.423477 150.337616,52.501427 
	C151.923019,54.111111 153.375015,56.676079 153.428436,58.834034 
	C153.725266,70.826096 153.690674,82.831825 153.441238,94.826050 
	C153.403976,96.616951 151.972305,98.773659 150.533829,99.990562 
	C149.689011,100.705246 146.886703,100.480865 146.158691,99.642372 
	C145.014603,98.324661 144.419220,96.139061 144.391220,94.308716 
	C144.233612,84.010529 144.315186,73.708679 144.315186,62.601738 
	C141.116013,62.601738 138.357941,62.601746 135.599854,62.601734 
	C127.933563,62.601707 120.267128,62.631695 112.601021,62.594460 
	C101.724808,62.541630 95.649956,56.442444 95.582451,45.468727 
	C95.529144,36.802811 95.571297,28.136307 95.571075,19.470064 
	C95.571030,17.846876 95.571075,16.223688 95.571075,14.424129 
	C93.904099,14.225942 92.779587,13.977167 91.654739,13.975679 
	C73.155678,13.951213 54.655773,13.853686 36.157776,13.995898 
	C24.693392,14.084036 18.820250,20.233616 18.787813,31.888252 
	C18.729368,52.887066 18.864241,73.887291 18.611418,94.883224 
	C18.588196,96.811638 16.723043,99.631187 15.020306,100.317253 
	C13.807746,100.805817 11.308588,98.557961 9.646364,97.207817 
	C9.116868,96.777725 9.369336,95.308586 9.368803,94.314835 
	C9.356911,72.149261 9.258992,49.983036 9.399758,27.818348 
	C9.476741,15.696732 20.395983,4.928261 32.501221,4.699959 
	C37.832447,4.599413 43.167130,4.682496 49.000206,4.682106 
M105.740723,29.664371 
	C105.740746,31.323719 105.722130,32.983307 105.743614,34.642376 
	C106.011681,55.339420 102.773331,52.431248 123.552277,52.640564 
	C127.526665,52.680599 131.501801,52.646305 134.057861,52.646305 
	C124.736435,43.228809 115.186653,33.580601 105.740479,24.037067 
	C105.740479,25.160952 105.740479,26.942656 105.740723,29.664371 
z"/>
<path fill="#0A80FF" opacity="1.000000" stroke="none" 
	d="
M71.000000,177.029083 
	C95.646461,177.029129 119.792931,177.028412 143.939392,177.031296 
	C145.271301,177.031448 146.638977,176.872284 147.927872,177.115967 
	C150.880112,177.674103 153.563400,178.846039 153.302429,182.486267 
	C153.049896,186.009094 150.652527,187.081558 147.377731,187.073929 
	C128.726761,187.030533 110.075661,187.054840 91.424599,187.055206 
	C66.945084,187.055695 42.465561,187.055862 17.986044,187.053894 
	C16.654190,187.053787 15.052287,187.498322 14.050796,186.917435 
	C12.348763,185.930222 10.071581,184.445541 9.818159,182.881210 
	C9.579071,181.405350 11.280426,179.014832 12.784983,178.026260 
	C14.278193,177.045135 16.589539,177.073532 18.543583,177.066330 
	C35.862198,177.002457 53.181149,177.029129 71.000000,177.029083 
z"/>
<path fill="#087FFF" opacity="1.000000" stroke="none" 
	d="
M145.825333,129.318573 
	C102.894066,129.319199 60.439434,129.320160 17.984804,129.315170 
	C16.488235,129.314987 14.668953,129.778152 13.571637,129.100220 
	C11.972529,128.112274 9.732901,126.154747 9.878326,124.845100 
	C10.070443,123.114983 12.173348,121.461853 13.731635,120.089958 
	C14.297768,119.591537 15.659693,119.991005 16.658525,119.990982 
	C59.945599,119.990028 103.232674,119.987648 146.519745,119.993729 
	C151.518539,119.994431 153.906006,121.917915 153.295731,125.510025 
	C152.589691,129.665680 149.318878,129.302719 145.825333,129.318573 
z"/>
<path fill="#067EFF" opacity="1.000000" stroke="none" 
	d="
M10.091774,155.571457 
	C8.917494,150.511185 11.176425,148.763031 15.575085,148.764923 
	C59.524437,148.783829 103.473808,148.786514 147.423141,148.760910 
	C150.634521,148.759048 153.226242,149.565186 153.281418,153.267197 
	C153.338806,157.115997 150.746841,158.370239 147.320282,158.375671 
	C136.499481,158.392807 125.678658,158.395721 114.857841,158.396454 
	C82.728195,158.398621 50.598244,158.456009 18.469442,158.291107 
	C15.744598,158.277115 13.027426,156.768311 10.091774,155.571457 
z"/>
<path fill="#EFF7FF" opacity="1.000000" stroke="none" 
	d="
M105.740601,29.194366 
	C105.740479,26.942656 105.740479,25.160952 105.740479,24.037067 
	C115.186653,33.580601 124.736435,43.228809 134.057861,52.646305 
	C131.501801,52.646305 127.526665,52.680599 123.552277,52.640564 
	C102.773331,52.431248 106.011681,55.339420 105.743614,34.642376 
	C105.722130,32.983307 105.740746,31.323719 105.740601,29.194366 
z"/>
</svg>