<svg xmlns="http://www.w3.org/2000/svg" xmlns:xlink="http://www.w3.org/1999/xlink" width="50" zoomAndPan="magnify" viewBox="0 0 37.5 37.499999" height="50" preserveAspectRatio="xMidYMid meet" version="1.0"><defs><clipPath id="91ee4e4472"><path d="M 6 0 L 35.59375 0 L 35.59375 37 L 6 37 Z M 6 0 " clip-rule="nonzero"/></clipPath><clipPath id="4e398dc75c"><path d="M 28 0 L 35.59375 0 L 35.59375 7 L 28 7 Z M 28 0 " clip-rule="nonzero"/></clipPath><clipPath id="5049378589"><path d="M 1.550781 14 L 32 14 L 32 32 L 1.550781 32 Z M 1.550781 14 " clip-rule="nonzero"/></clipPath><clipPath id="42eaa65145"><path d="M 1.550781 12 L 8 12 L 8 17 L 1.550781 17 Z M 1.550781 12 " clip-rule="nonzero"/></clipPath></defs><g clip-path="url(#91ee4e4472)"><path fill="#fbf3f3" d="M 28.632812 0.0078125 L 10.835938 0.0078125 C 9.128906 0.0078125 7.738281 1.390625 7.738281 3.089844 L 7.738281 12.339844 L 6.964844 14.648438 L 7.738281 16.960938 C 7.738281 18.171875 7.738281 33.257812 7.738281 33.914062 C 7.738281 35.617188 9.128906 37 10.835938 37 L 32.5 37 C 34.207031 37 35.59375 35.617188 35.59375 33.914062 L 35.59375 6.945312 L 30.179688 5.402344 Z M 28.632812 0.0078125 " fill-opacity="1" fill-rule="nonzero"/></g><g clip-path="url(#4e398dc75c)"><path fill="#ece6f2" d="M 28.632812 6.945312 L 35.59375 6.945312 L 28.632812 0.0078125 Z M 28.632812 6.945312 " fill-opacity="1" fill-rule="nonzero"/></g><path fill="#d3cbe4" d="M 18.574219 6.945312 L 12.382812 6.945312 C 11.957031 6.945312 11.609375 6.597656 11.609375 6.171875 C 11.609375 5.746094 11.957031 5.402344 12.382812 5.402344 L 18.574219 5.402344 C 19 5.402344 19.347656 5.746094 19.347656 6.171875 C 19.347656 6.597656 19 6.945312 18.574219 6.945312 Z M 18.574219 6.945312 " fill-opacity="1" fill-rule="nonzero"/><path fill="#d3cbe4" d="M 24.761719 10.027344 L 12.382812 10.027344 C 11.957031 10.027344 11.609375 9.679688 11.609375 9.253906 C 11.609375 8.832031 11.957031 8.484375 12.382812 8.484375 L 24.761719 8.484375 C 25.191406 8.484375 25.535156 8.832031 25.535156 9.253906 C 25.535156 9.679688 25.191406 10.027344 24.761719 10.027344 Z M 24.761719 10.027344 " fill-opacity="1" fill-rule="nonzero"/><path fill="#d3cbe4" d="M 24.761719 13.109375 L 12.382812 13.109375 C 11.957031 13.109375 11.609375 12.765625 11.609375 12.339844 C 11.609375 11.914062 11.957031 11.566406 12.382812 11.566406 L 24.761719 11.566406 C 25.191406 11.566406 25.535156 11.914062 25.535156 12.339844 C 25.535156 12.765625 25.191406 13.109375 24.761719 13.109375 Z M 24.761719 13.109375 " fill-opacity="1" fill-rule="nonzero"/><g clip-path="url(#5049378589)"><path fill="#80aaff" d="M 29.019531 16.960938 L 7.738281 16.960938 L 1.550781 14.648438 C 1.550781 16.703125 1.550781 26.070312 1.550781 27.417969 C 1.550781 29.726562 3.4375 31.605469 5.753906 31.605469 C 7.113281 31.605469 27.59375 31.605469 29.019531 31.605469 C 30.511719 31.605469 31.726562 30.394531 31.726562 28.90625 L 31.726562 19.660156 C 31.726562 18.171875 30.511719 16.960938 29.019531 16.960938 Z M 29.019531 16.960938 " fill-opacity="1" fill-rule="nonzero"/></g><g clip-path="url(#42eaa65145)"><path fill="#6680ff" d="M 7.738281 16.960938 L 3.871094 16.960938 C 2.589844 16.960938 1.550781 15.925781 1.550781 14.648438 C 1.550781 13.375 2.589844 12.339844 3.871094 12.339844 L 7.738281 12.339844 Z M 7.738281 16.960938 " fill-opacity="1" fill-rule="nonzero"/></g><path fill="#fbf3f3" d="M 6.578125 28.519531 L 5.417969 28.519531 C 4.992188 28.519531 4.644531 28.175781 4.644531 27.75 L 4.644531 20.816406 C 4.644531 20.390625 4.992188 20.042969 5.417969 20.042969 L 6.578125 20.042969 C 8.925781 20.042969 10.835938 21.945312 10.835938 24.28125 C 10.835938 26.621094 8.925781 28.519531 6.578125 28.519531 Z M 6.191406 26.980469 L 6.578125 26.980469 C 8.074219 26.980469 9.289062 25.769531 9.289062 24.28125 C 9.289062 22.796875 8.074219 21.585938 6.578125 21.585938 L 6.191406 21.585938 Z M 6.191406 26.980469 " fill-opacity="1" fill-rule="nonzero"/><path fill="#fbf3f3" d="M 14.316406 28.519531 C 12.824219 28.519531 11.609375 27.3125 11.609375 25.824219 L 11.609375 22.742188 C 11.609375 21.253906 12.824219 20.042969 14.316406 20.042969 C 15.808594 20.042969 17.023438 21.253906 17.023438 22.742188 L 17.023438 25.824219 C 17.023438 27.3125 15.808594 28.519531 14.316406 28.519531 Z M 14.316406 21.585938 C 13.675781 21.585938 13.15625 22.105469 13.15625 22.742188 L 13.15625 25.824219 C 13.15625 26.460938 13.675781 26.980469 14.316406 26.980469 C 14.957031 26.980469 15.476562 26.460938 15.476562 25.824219 L 15.476562 22.742188 C 15.476562 22.105469 14.957031 21.585938 14.316406 21.585938 Z M 14.316406 21.585938 " fill-opacity="1" fill-rule="nonzero"/><path fill="#fbf3f3" d="M 22.054688 28.519531 C 19.707031 28.519531 17.800781 26.621094 17.800781 24.28125 C 17.800781 21.945312 19.707031 20.042969 22.054688 20.042969 C 22.480469 20.042969 22.828125 20.390625 22.828125 20.816406 C 22.828125 21.242188 22.480469 21.585938 22.054688 21.585938 C 20.5625 21.585938 19.347656 22.796875 19.347656 24.28125 C 19.347656 25.769531 20.5625 26.980469 22.054688 26.980469 C 22.480469 26.980469 22.828125 27.324219 22.828125 27.75 C 22.828125 28.175781 22.480469 28.519531 22.054688 28.519531 Z M 22.054688 28.519531 " fill-opacity="1" fill-rule="nonzero"/><path fill="#fbf3f3" d="M 27.859375 28.523438 C 27.5625 28.523438 27.277344 28.351562 27.152344 28.0625 L 24.054688 21.128906 C 23.882812 20.738281 24.058594 20.285156 24.449219 20.109375 C 24.839844 19.9375 25.296875 20.113281 25.46875 20.503906 L 28.566406 27.4375 C 28.738281 27.828125 28.5625 28.28125 28.171875 28.453125 C 28.070312 28.5 27.964844 28.523438 27.859375 28.523438 Z M 27.859375 28.523438 " fill-opacity="1" fill-rule="nonzero"/><path fill="#fbf3f3" d="M 24.449219 28.453125 C 24.058594 28.28125 23.882812 27.828125 24.054688 27.4375 L 27.152344 20.503906 C 27.324219 20.113281 27.78125 19.9375 28.171875 20.109375 C 28.5625 20.285156 28.738281 20.738281 28.566406 21.128906 L 25.46875 28.0625 C 25.296875 28.449219 24.839844 28.628906 24.449219 28.453125 Z M 24.449219 28.453125 " fill-opacity="1" fill-rule="nonzero"/></svg>