<svg xmlns="http://www.w3.org/2000/svg" xmlns:xlink="http://www.w3.org/1999/xlink" width="258" zoomAndPan="magnify" viewBox="0 0 193.5 33.749998" height="45" preserveAspectRatio="xMidYMid meet" version="1.0"><defs><g/><clipPath id="31920d040f"><path d="M 79.71875 5.226562 L 119.5 5.226562 L 119.5 16.582031 L 79.71875 16.582031 Z M 79.71875 5.226562 " clip-rule="nonzero"/></clipPath><clipPath id="933c4dc833"><path d="M 81.207031 5.226562 L 118.011719 5.226562 C 118.40625 5.226562 118.785156 5.382812 119.066406 5.664062 C 119.34375 5.941406 119.5 6.320312 119.5 6.714844 L 119.5 15.09375 C 119.5 15.488281 119.34375 15.867188 119.066406 16.144531 C 118.785156 16.425781 118.40625 16.582031 118.011719 16.582031 L 81.207031 16.582031 C 80.8125 16.582031 80.433594 16.425781 80.15625 16.144531 C 79.875 15.867188 79.71875 15.488281 79.71875 15.09375 L 79.71875 6.714844 C 79.71875 6.320312 79.875 5.941406 80.15625 5.664062 C 80.433594 5.382812 80.8125 5.226562 81.207031 5.226562 Z M 81.207031 5.226562 " clip-rule="nonzero"/></clipPath><linearGradient x1="-0.0000225279" gradientTransform="matrix(0.155401, 0, 0, 0.0443547, 79.71893, 5.226584)" y1="0" x2="255.999985" gradientUnits="userSpaceOnUse" y2="0" id="da26af40a3"><stop stop-opacity="1" stop-color="rgb(0%, 42.698669%, 100%)" offset="0"/><stop stop-opacity="1" stop-color="rgb(0.30365%, 42.532349%, 100%)" offset="0.00390625"/><stop stop-opacity="1" stop-color="rgb(0.608826%, 42.366028%, 100%)" offset="0.0078125"/><stop stop-opacity="1" stop-color="rgb(0.912476%, 42.198181%, 100%)" offset="0.0117188"/><stop stop-opacity="1" stop-color="rgb(1.217651%, 42.03186%, 100%)" offset="0.015625"/><stop stop-opacity="1" stop-color="rgb(1.522827%, 41.86554%, 100%)" offset="0.0195312"/><stop stop-opacity="1" stop-color="rgb(1.828003%, 41.699219%, 100%)" offset="0.0234375"/><stop stop-opacity="1" stop-color="rgb(2.131653%, 41.531372%, 100%)" offset="0.0273438"/><stop stop-opacity="1" stop-color="rgb(2.436829%, 41.365051%, 100%)" offset="0.03125"/><stop stop-opacity="1" stop-color="rgb(2.740479%, 41.197205%, 100%)" offset="0.0351562"/><stop stop-opacity="1" stop-color="rgb(3.045654%, 41.030884%, 100%)" offset="0.0390625"/><stop stop-opacity="1" stop-color="rgb(3.35083%, 40.864563%, 100%)" offset="0.0429688"/><stop stop-opacity="1" stop-color="rgb(3.656006%, 40.698242%, 100%)" offset="0.046875"/><stop stop-opacity="1" stop-color="rgb(3.959656%, 40.530396%, 100%)" offset="0.0507812"/><stop stop-opacity="1" stop-color="rgb(4.264832%, 40.364075%, 100%)" offset="0.0546875"/><stop stop-opacity="1" stop-color="rgb(4.568481%, 40.196228%, 100%)" offset="0.0585937"/><stop stop-opacity="1" stop-color="rgb(4.873657%, 40.029907%, 100%)" offset="0.0625"/><stop stop-opacity="1" stop-color="rgb(5.178833%, 39.863586%, 100%)" offset="0.0664062"/><stop stop-opacity="1" stop-color="rgb(5.484009%, 39.697266%, 100%)" offset="0.0703125"/><stop stop-opacity="1" stop-color="rgb(5.787659%, 39.529419%, 100%)" offset="0.0742188"/><stop stop-opacity="1" stop-color="rgb(6.092834%, 39.363098%, 100%)" offset="0.078125"/><stop stop-opacity="1" stop-color="rgb(6.396484%, 39.196777%, 100%)" offset="0.0820313"/><stop stop-opacity="1" stop-color="rgb(6.70166%, 39.030457%, 100%)" offset="0.0859375"/><stop stop-opacity="1" stop-color="rgb(7.006836%, 38.86261%, 100%)" offset="0.0898437"/><stop stop-opacity="1" stop-color="rgb(7.312012%, 38.696289%, 100%)" offset="0.09375"/><stop stop-opacity="1" stop-color="rgb(7.615662%, 38.528442%, 100%)" offset="0.0976562"/><stop stop-opacity="1" stop-color="rgb(7.920837%, 38.362122%, 100%)" offset="0.101562"/><stop stop-opacity="1" stop-color="rgb(8.226013%, 38.195801%, 100%)" offset="0.105469"/><stop stop-opacity="1" stop-color="rgb(8.531189%, 38.02948%, 100%)" offset="0.109375"/><stop stop-opacity="1" stop-color="rgb(8.834839%, 37.861633%, 100%)" offset="0.113281"/><stop stop-opacity="1" stop-color="rgb(9.140015%, 37.695312%, 100%)" offset="0.117187"/><stop stop-opacity="1" stop-color="rgb(9.443665%, 37.527466%, 100%)" offset="0.121094"/><stop stop-opacity="1" stop-color="rgb(9.74884%, 37.361145%, 100%)" offset="0.125"/><stop stop-opacity="1" stop-color="rgb(10.054016%, 37.194824%, 100%)" offset="0.128906"/><stop stop-opacity="1" stop-color="rgb(10.359192%, 37.028503%, 100%)" offset="0.132812"/><stop stop-opacity="1" stop-color="rgb(10.662842%, 36.860657%, 100%)" offset="0.136719"/><stop stop-opacity="1" stop-color="rgb(10.968018%, 36.694336%, 100%)" offset="0.140625"/><stop stop-opacity="1" stop-color="rgb(11.271667%, 36.528015%, 100%)" offset="0.144531"/><stop stop-opacity="1" stop-color="rgb(11.576843%, 36.361694%, 100%)" offset="0.148438"/><stop stop-opacity="1" stop-color="rgb(11.882019%, 36.193848%, 100%)" offset="0.152344"/><stop stop-opacity="1" stop-color="rgb(12.187195%, 36.027527%, 100%)" offset="0.15625"/><stop stop-opacity="1" stop-color="rgb(12.490845%, 35.85968%, 100%)" offset="0.160156"/><stop stop-opacity="1" stop-color="rgb(12.796021%, 35.693359%, 100%)" offset="0.164063"/><stop stop-opacity="1" stop-color="rgb(13.09967%, 35.527039%, 100%)" offset="0.167969"/><stop stop-opacity="1" stop-color="rgb(13.404846%, 35.360718%, 100%)" offset="0.171875"/><stop stop-opacity="1" stop-color="rgb(13.710022%, 35.192871%, 100%)" offset="0.175781"/><stop stop-opacity="1" stop-color="rgb(14.015198%, 35.02655%, 100%)" offset="0.179687"/><stop stop-opacity="1" stop-color="rgb(14.318848%, 34.858704%, 100%)" offset="0.183594"/><stop stop-opacity="1" stop-color="rgb(14.624023%, 34.692383%, 100%)" offset="0.1875"/><stop stop-opacity="1" stop-color="rgb(14.927673%, 34.526062%, 100%)" offset="0.191406"/><stop stop-opacity="1" stop-color="rgb(15.232849%, 34.359741%, 100%)" offset="0.195312"/><stop stop-opacity="1" stop-color="rgb(15.538025%, 34.191895%, 100%)" offset="0.199219"/><stop stop-opacity="1" stop-color="rgb(15.843201%, 34.025574%, 100%)" offset="0.203125"/><stop stop-opacity="1" stop-color="rgb(16.146851%, 33.859253%, 100%)" offset="0.207031"/><stop stop-opacity="1" stop-color="rgb(16.452026%, 33.692932%, 100%)" offset="0.210938"/><stop stop-opacity="1" stop-color="rgb(16.757202%, 33.525085%, 100%)" offset="0.214844"/><stop stop-opacity="1" stop-color="rgb(17.062378%, 33.358765%, 100%)" offset="0.21875"/><stop stop-opacity="1" stop-color="rgb(17.366028%, 33.190918%, 100%)" offset="0.222656"/><stop stop-opacity="1" stop-color="rgb(17.671204%, 33.024597%, 100%)" offset="0.226562"/><stop stop-opacity="1" stop-color="rgb(17.974854%, 32.858276%, 100%)" offset="0.230469"/><stop stop-opacity="1" stop-color="rgb(18.280029%, 32.691956%, 100%)" offset="0.234375"/><stop stop-opacity="1" stop-color="rgb(18.585205%, 32.524109%, 100%)" offset="0.238281"/><stop stop-opacity="1" stop-color="rgb(18.890381%, 32.357788%, 100%)" offset="0.242188"/><stop stop-opacity="1" stop-color="rgb(19.194031%, 32.189941%, 100%)" offset="0.246094"/><stop stop-opacity="1" stop-color="rgb(19.499207%, 32.023621%, 100%)" offset="0.25"/><stop stop-opacity="1" stop-color="rgb(19.802856%, 31.8573%, 100%)" offset="0.253906"/><stop stop-opacity="1" stop-color="rgb(20.108032%, 31.690979%, 100%)" offset="0.257812"/><stop stop-opacity="1" stop-color="rgb(20.413208%, 31.523132%, 100%)" offset="0.261719"/><stop stop-opacity="1" stop-color="rgb(20.718384%, 31.356812%, 100%)" offset="0.265625"/><stop stop-opacity="1" stop-color="rgb(21.022034%, 31.190491%, 100%)" offset="0.269531"/><stop stop-opacity="1" stop-color="rgb(21.327209%, 31.02417%, 100%)" offset="0.273437"/><stop stop-opacity="1" stop-color="rgb(21.630859%, 30.856323%, 100%)" offset="0.277344"/><stop stop-opacity="1" stop-color="rgb(21.936035%, 30.690002%, 100%)" offset="0.28125"/><stop stop-opacity="1" stop-color="rgb(22.241211%, 30.522156%, 100%)" offset="0.285156"/><stop stop-opacity="1" stop-color="rgb(22.546387%, 30.355835%, 100%)" offset="0.289062"/><stop stop-opacity="1" stop-color="rgb(22.850037%, 30.189514%, 100%)" offset="0.292969"/><stop stop-opacity="1" stop-color="rgb(23.155212%, 30.023193%, 100%)" offset="0.296875"/><stop stop-opacity="1" stop-color="rgb(23.460388%, 29.855347%, 100%)" offset="0.300781"/><stop stop-opacity="1" stop-color="rgb(23.765564%, 29.689026%, 100%)" offset="0.304688"/><stop stop-opacity="1" stop-color="rgb(24.069214%, 29.521179%, 100%)" offset="0.308594"/><stop stop-opacity="1" stop-color="rgb(24.37439%, 29.354858%, 100%)" offset="0.3125"/><stop stop-opacity="1" stop-color="rgb(24.67804%, 29.188538%, 100%)" offset="0.316406"/><stop stop-opacity="1" stop-color="rgb(24.983215%, 29.022217%, 100%)" offset="0.320312"/><stop stop-opacity="1" stop-color="rgb(25.288391%, 28.85437%, 100%)" offset="0.324219"/><stop stop-opacity="1" stop-color="rgb(25.593567%, 28.688049%, 100%)" offset="0.328125"/><stop stop-opacity="1" stop-color="rgb(25.897217%, 28.521729%, 100%)" offset="0.332031"/><stop stop-opacity="1" stop-color="rgb(26.202393%, 28.355408%, 100%)" offset="0.335938"/><stop stop-opacity="1" stop-color="rgb(26.506042%, 28.187561%, 100%)" offset="0.339844"/><stop stop-opacity="1" stop-color="rgb(26.811218%, 28.02124%, 100%)" offset="0.34375"/><stop stop-opacity="1" stop-color="rgb(27.116394%, 27.853394%, 100%)" offset="0.347656"/><stop stop-opacity="1" stop-color="rgb(27.42157%, 27.687073%, 100%)" offset="0.351562"/><stop stop-opacity="1" stop-color="rgb(27.72522%, 27.520752%, 100%)" offset="0.355469"/><stop stop-opacity="1" stop-color="rgb(28.030396%, 27.354431%, 100%)" offset="0.359375"/><stop stop-opacity="1" stop-color="rgb(28.334045%, 27.186584%, 100%)" offset="0.363281"/><stop stop-opacity="1" stop-color="rgb(28.639221%, 27.020264%, 100%)" offset="0.367187"/><stop stop-opacity="1" stop-color="rgb(28.944397%, 26.852417%, 100%)" offset="0.371094"/><stop stop-opacity="1" stop-color="rgb(29.249573%, 26.686096%, 100%)" offset="0.375"/><stop stop-opacity="1" stop-color="rgb(29.553223%, 26.519775%, 100%)" offset="0.378906"/><stop stop-opacity="1" stop-color="rgb(29.858398%, 26.353455%, 100%)" offset="0.382812"/><stop stop-opacity="1" stop-color="rgb(30.162048%, 26.185608%, 100%)" offset="0.386719"/><stop stop-opacity="1" stop-color="rgb(30.467224%, 26.019287%, 100%)" offset="0.390625"/><stop stop-opacity="1" stop-color="rgb(30.7724%, 25.852966%, 100%)" offset="0.394531"/><stop stop-opacity="1" stop-color="rgb(31.077576%, 25.686646%, 100%)" offset="0.398438"/><stop stop-opacity="1" stop-color="rgb(31.381226%, 25.518799%, 100%)" offset="0.402344"/><stop stop-opacity="1" stop-color="rgb(31.686401%, 25.352478%, 100%)" offset="0.40625"/><stop stop-opacity="1" stop-color="rgb(31.991577%, 25.184631%, 100%)" offset="0.410156"/><stop stop-opacity="1" stop-color="rgb(32.296753%, 25.018311%, 100%)" offset="0.414062"/><stop stop-opacity="1" stop-color="rgb(32.600403%, 24.85199%, 100%)" offset="0.417969"/><stop stop-opacity="1" stop-color="rgb(32.905579%, 24.685669%, 100%)" offset="0.421875"/><stop stop-opacity="1" stop-color="rgb(33.209229%, 24.517822%, 100%)" offset="0.425781"/><stop stop-opacity="1" stop-color="rgb(33.514404%, 24.351501%, 100%)" offset="0.429688"/><stop stop-opacity="1" stop-color="rgb(33.81958%, 24.183655%, 100%)" offset="0.433594"/><stop stop-opacity="1" stop-color="rgb(34.124756%, 24.017334%, 100%)" offset="0.4375"/><stop stop-opacity="1" stop-color="rgb(34.428406%, 23.851013%, 100%)" offset="0.441406"/><stop stop-opacity="1" stop-color="rgb(34.733582%, 23.684692%, 100%)" offset="0.445312"/><stop stop-opacity="1" stop-color="rgb(35.037231%, 23.516846%, 100%)" offset="0.449219"/><stop stop-opacity="1" stop-color="rgb(35.342407%, 23.350525%, 100%)" offset="0.453125"/><stop stop-opacity="1" stop-color="rgb(35.647583%, 23.184204%, 100%)" offset="0.457031"/><stop stop-opacity="1" stop-color="rgb(35.952759%, 23.017883%, 100%)" offset="0.460937"/><stop stop-opacity="1" stop-color="rgb(36.256409%, 22.850037%, 100%)" offset="0.464844"/><stop stop-opacity="1" stop-color="rgb(36.561584%, 22.683716%, 100%)" offset="0.46875"/><stop stop-opacity="1" stop-color="rgb(36.865234%, 22.515869%, 100%)" offset="0.472656"/><stop stop-opacity="1" stop-color="rgb(37.17041%, 22.349548%, 100%)" offset="0.476562"/><stop stop-opacity="1" stop-color="rgb(37.475586%, 22.183228%, 100%)" offset="0.480469"/><stop stop-opacity="1" stop-color="rgb(37.780762%, 22.016907%, 100%)" offset="0.484375"/><stop stop-opacity="1" stop-color="rgb(38.084412%, 21.84906%, 100%)" offset="0.488281"/><stop stop-opacity="1" stop-color="rgb(38.389587%, 21.682739%, 100%)" offset="0.492188"/><stop stop-opacity="1" stop-color="rgb(38.694763%, 21.514893%, 100%)" offset="0.496094"/><stop stop-opacity="1" stop-color="rgb(38.999939%, 21.348572%, 100%)" offset="0.5"/><stop stop-opacity="1" stop-color="rgb(39.303589%, 21.182251%, 100%)" offset="0.503906"/><stop stop-opacity="1" stop-color="rgb(39.608765%, 21.01593%, 100%)" offset="0.507812"/><stop stop-opacity="1" stop-color="rgb(39.912415%, 20.848083%, 100%)" offset="0.511719"/><stop stop-opacity="1" stop-color="rgb(40.21759%, 20.681763%, 100%)" offset="0.515625"/><stop stop-opacity="1" stop-color="rgb(40.522766%, 20.515442%, 100%)" offset="0.519531"/><stop stop-opacity="1" stop-color="rgb(40.827942%, 20.349121%, 100%)" offset="0.523437"/><stop stop-opacity="1" stop-color="rgb(41.131592%, 20.181274%, 100%)" offset="0.527344"/><stop stop-opacity="1" stop-color="rgb(41.436768%, 20.014954%, 100%)" offset="0.53125"/><stop stop-opacity="1" stop-color="rgb(41.740417%, 19.847107%, 100%)" offset="0.535156"/><stop stop-opacity="1" stop-color="rgb(42.045593%, 19.680786%, 100%)" offset="0.539062"/><stop stop-opacity="1" stop-color="rgb(42.350769%, 19.514465%, 100%)" offset="0.542969"/><stop stop-opacity="1" stop-color="rgb(42.655945%, 19.348145%, 100%)" offset="0.546875"/><stop stop-opacity="1" stop-color="rgb(42.959595%, 19.180298%, 100%)" offset="0.550781"/><stop stop-opacity="1" stop-color="rgb(43.264771%, 19.013977%, 100%)" offset="0.554688"/><stop stop-opacity="1" stop-color="rgb(43.56842%, 18.84613%, 100%)" offset="0.558594"/><stop stop-opacity="1" stop-color="rgb(43.873596%, 18.67981%, 100%)" offset="0.5625"/><stop stop-opacity="1" stop-color="rgb(44.178772%, 18.513489%, 100%)" offset="0.566406"/><stop stop-opacity="1" stop-color="rgb(44.483948%, 18.347168%, 100%)" offset="0.570312"/><stop stop-opacity="1" stop-color="rgb(44.787598%, 18.179321%, 100%)" offset="0.574219"/><stop stop-opacity="1" stop-color="rgb(45.092773%, 18.013%, 100%)" offset="0.578125"/><stop stop-opacity="1" stop-color="rgb(45.396423%, 17.84668%, 100%)" offset="0.582031"/><stop stop-opacity="1" stop-color="rgb(45.701599%, 17.680359%, 100%)" offset="0.585938"/><stop stop-opacity="1" stop-color="rgb(46.006775%, 17.512512%, 100%)" offset="0.589844"/><stop stop-opacity="1" stop-color="rgb(46.311951%, 17.346191%, 100%)" offset="0.59375"/><stop stop-opacity="1" stop-color="rgb(46.615601%, 17.178345%, 100%)" offset="0.597656"/><stop stop-opacity="1" stop-color="rgb(46.920776%, 17.012024%, 100%)" offset="0.601562"/><stop stop-opacity="1" stop-color="rgb(47.225952%, 16.845703%, 100%)" offset="0.605469"/><stop stop-opacity="1" stop-color="rgb(47.531128%, 16.679382%, 100%)" offset="0.609375"/><stop stop-opacity="1" stop-color="rgb(47.834778%, 16.511536%, 100%)" offset="0.613281"/><stop stop-opacity="1" stop-color="rgb(48.139954%, 16.345215%, 100%)" offset="0.617188"/><stop stop-opacity="1" stop-color="rgb(48.443604%, 16.177368%, 100%)" offset="0.621094"/><stop stop-opacity="1" stop-color="rgb(48.748779%, 16.011047%, 100%)" offset="0.625"/><stop stop-opacity="1" stop-color="rgb(49.053955%, 15.844727%, 100%)" offset="0.628906"/><stop stop-opacity="1" stop-color="rgb(49.359131%, 15.678406%, 100%)" offset="0.632812"/><stop stop-opacity="1" stop-color="rgb(49.662781%, 15.510559%, 100%)" offset="0.636719"/><stop stop-opacity="1" stop-color="rgb(49.967957%, 15.344238%, 100%)" offset="0.640625"/><stop stop-opacity="1" stop-color="rgb(50.271606%, 15.177917%, 100%)" offset="0.644531"/><stop stop-opacity="1" stop-color="rgb(50.576782%, 15.011597%, 100%)" offset="0.648438"/><stop stop-opacity="1" stop-color="rgb(50.881958%, 14.84375%, 100%)" offset="0.652344"/><stop stop-opacity="1" stop-color="rgb(51.187134%, 14.677429%, 100%)" offset="0.65625"/><stop stop-opacity="1" stop-color="rgb(51.490784%, 14.509583%, 100%)" offset="0.660156"/><stop stop-opacity="1" stop-color="rgb(51.795959%, 14.343262%, 100%)" offset="0.664063"/><stop stop-opacity="1" stop-color="rgb(52.099609%, 14.176941%, 100%)" offset="0.667969"/><stop stop-opacity="1" stop-color="rgb(52.404785%, 14.01062%, 100%)" offset="0.671875"/><stop stop-opacity="1" stop-color="rgb(52.709961%, 13.842773%, 100%)" offset="0.675781"/><stop stop-opacity="1" stop-color="rgb(53.015137%, 13.676453%, 100%)" offset="0.679688"/><stop stop-opacity="1" stop-color="rgb(53.318787%, 13.508606%, 100%)" offset="0.683594"/><stop stop-opacity="1" stop-color="rgb(53.623962%, 13.342285%, 100%)" offset="0.6875"/><stop stop-opacity="1" stop-color="rgb(53.929138%, 13.175964%, 100%)" offset="0.691406"/><stop stop-opacity="1" stop-color="rgb(54.234314%, 13.009644%, 100%)" offset="0.695312"/><stop stop-opacity="1" stop-color="rgb(54.537964%, 12.841797%, 100%)" offset="0.699219"/><stop stop-opacity="1" stop-color="rgb(54.84314%, 12.675476%, 100%)" offset="0.703125"/><stop stop-opacity="1" stop-color="rgb(55.14679%, 12.509155%, 100%)" offset="0.707031"/><stop stop-opacity="1" stop-color="rgb(55.451965%, 12.342834%, 100%)" offset="0.710937"/><stop stop-opacity="1" stop-color="rgb(55.757141%, 12.174988%, 100%)" offset="0.714844"/><stop stop-opacity="1" stop-color="rgb(56.062317%, 12.008667%, 100%)" offset="0.71875"/><stop stop-opacity="1" stop-color="rgb(56.365967%, 11.84082%, 100%)" offset="0.722656"/><stop stop-opacity="1" stop-color="rgb(56.671143%, 11.6745%, 100%)" offset="0.726562"/><stop stop-opacity="1" stop-color="rgb(56.974792%, 11.508179%, 100%)" offset="0.730469"/><stop stop-opacity="1" stop-color="rgb(57.279968%, 11.341858%, 100%)" offset="0.734375"/><stop stop-opacity="1" stop-color="rgb(57.585144%, 11.174011%, 100%)" offset="0.738281"/><stop stop-opacity="1" stop-color="rgb(57.89032%, 11.00769%, 100%)" offset="0.742187"/><stop stop-opacity="1" stop-color="rgb(58.19397%, 10.839844%, 100%)" offset="0.746094"/><stop stop-opacity="1" stop-color="rgb(58.499146%, 10.673523%, 100%)" offset="0.75"/><stop stop-opacity="1" stop-color="rgb(58.802795%, 10.507202%, 100%)" offset="0.753906"/><stop stop-opacity="1" stop-color="rgb(59.107971%, 10.340881%, 100%)" offset="0.757812"/><stop stop-opacity="1" stop-color="rgb(59.413147%, 10.173035%, 100%)" offset="0.761719"/><stop stop-opacity="1" stop-color="rgb(59.718323%, 10.006714%, 100%)" offset="0.765625"/><stop stop-opacity="1" stop-color="rgb(60.021973%, 9.840393%, 100%)" offset="0.769531"/><stop stop-opacity="1" stop-color="rgb(60.327148%, 9.674072%, 100%)" offset="0.773438"/><stop stop-opacity="1" stop-color="rgb(60.630798%, 9.506226%, 100%)" offset="0.777344"/><stop stop-opacity="1" stop-color="rgb(60.935974%, 9.339905%, 100%)" offset="0.78125"/><stop stop-opacity="1" stop-color="rgb(61.24115%, 9.172058%, 100%)" offset="0.785156"/><stop stop-opacity="1" stop-color="rgb(61.546326%, 9.005737%, 100%)" offset="0.789062"/><stop stop-opacity="1" stop-color="rgb(61.849976%, 8.839417%, 100%)" offset="0.792969"/><stop stop-opacity="1" stop-color="rgb(62.155151%, 8.673096%, 100%)" offset="0.796875"/><stop stop-opacity="1" stop-color="rgb(62.460327%, 8.505249%, 100%)" offset="0.800781"/><stop stop-opacity="1" stop-color="rgb(62.765503%, 8.338928%, 100%)" offset="0.804688"/><stop stop-opacity="1" stop-color="rgb(63.069153%, 8.171082%, 100%)" offset="0.808594"/><stop stop-opacity="1" stop-color="rgb(63.374329%, 8.004761%, 100%)" offset="0.8125"/><stop stop-opacity="1" stop-color="rgb(63.677979%, 7.83844%, 100%)" offset="0.816406"/><stop stop-opacity="1" stop-color="rgb(63.983154%, 7.672119%, 100%)" offset="0.820312"/><stop stop-opacity="1" stop-color="rgb(64.28833%, 7.504272%, 100%)" offset="0.824219"/><stop stop-opacity="1" stop-color="rgb(64.593506%, 7.337952%, 100%)" offset="0.828125"/><stop stop-opacity="1" stop-color="rgb(64.897156%, 7.171631%, 100%)" offset="0.832031"/><stop stop-opacity="1" stop-color="rgb(65.202332%, 7.00531%, 100%)" offset="0.835938"/><stop stop-opacity="1" stop-color="rgb(65.505981%, 6.837463%, 100%)" offset="0.839844"/><stop stop-opacity="1" stop-color="rgb(65.811157%, 6.671143%, 100%)" offset="0.84375"/><stop stop-opacity="1" stop-color="rgb(66.116333%, 6.503296%, 100%)" offset="0.847656"/><stop stop-opacity="1" stop-color="rgb(66.421509%, 6.336975%, 100%)" offset="0.851563"/><stop stop-opacity="1" stop-color="rgb(66.725159%, 6.170654%, 100%)" offset="0.855469"/><stop stop-opacity="1" stop-color="rgb(67.030334%, 6.004333%, 100%)" offset="0.859375"/><stop stop-opacity="1" stop-color="rgb(67.333984%, 5.836487%, 100%)" offset="0.863281"/><stop stop-opacity="1" stop-color="rgb(67.63916%, 5.670166%, 100%)" offset="0.867188"/><stop stop-opacity="1" stop-color="rgb(67.944336%, 5.502319%, 100%)" offset="0.871094"/><stop stop-opacity="1" stop-color="rgb(68.249512%, 5.335999%, 100%)" offset="0.875"/><stop stop-opacity="1" stop-color="rgb(68.553162%, 5.169678%, 100%)" offset="0.878906"/><stop stop-opacity="1" stop-color="rgb(68.858337%, 5.003357%, 100%)" offset="0.882812"/><stop stop-opacity="1" stop-color="rgb(69.163513%, 4.83551%, 100%)" offset="0.886719"/><stop stop-opacity="1" stop-color="rgb(69.468689%, 4.669189%, 100%)" offset="0.890625"/><stop stop-opacity="1" stop-color="rgb(69.772339%, 4.502869%, 100%)" offset="0.894531"/><stop stop-opacity="1" stop-color="rgb(70.077515%, 4.336548%, 100%)" offset="0.898437"/><stop stop-opacity="1" stop-color="rgb(70.381165%, 4.168701%, 100%)" offset="0.902344"/><stop stop-opacity="1" stop-color="rgb(70.68634%, 4.00238%, 100%)" offset="0.90625"/><stop stop-opacity="1" stop-color="rgb(70.991516%, 3.834534%, 100%)" offset="0.910156"/><stop stop-opacity="1" stop-color="rgb(71.296692%, 3.668213%, 100%)" offset="0.914062"/><stop stop-opacity="1" stop-color="rgb(71.600342%, 3.501892%, 100%)" offset="0.917969"/><stop stop-opacity="1" stop-color="rgb(71.905518%, 3.335571%, 100%)" offset="0.921875"/><stop stop-opacity="1" stop-color="rgb(72.209167%, 3.167725%, 100%)" offset="0.925781"/><stop stop-opacity="1" stop-color="rgb(72.514343%, 3.001404%, 100%)" offset="0.929687"/><stop stop-opacity="1" stop-color="rgb(72.819519%, 2.833557%, 100%)" offset="0.933594"/><stop stop-opacity="1" stop-color="rgb(73.124695%, 2.667236%, 100%)" offset="0.9375"/><stop stop-opacity="1" stop-color="rgb(73.428345%, 2.500916%, 100%)" offset="0.941406"/><stop stop-opacity="1" stop-color="rgb(73.733521%, 2.334595%, 100%)" offset="0.945312"/><stop stop-opacity="1" stop-color="rgb(74.03717%, 2.166748%, 100%)" offset="0.949219"/><stop stop-opacity="1" stop-color="rgb(74.342346%, 2.000427%, 100%)" offset="0.953125"/><stop stop-opacity="1" stop-color="rgb(74.647522%, 1.834106%, 100%)" offset="0.957031"/><stop stop-opacity="1" stop-color="rgb(74.952698%, 1.667786%, 100%)" offset="0.960938"/><stop stop-opacity="1" stop-color="rgb(75.256348%, 1.499939%, 100%)" offset="0.964844"/><stop stop-opacity="1" stop-color="rgb(75.561523%, 1.333618%, 100%)" offset="0.96875"/><stop stop-opacity="1" stop-color="rgb(75.865173%, 1.165771%, 100%)" offset="0.972656"/><stop stop-opacity="1" stop-color="rgb(76.170349%, 0.999451%, 100%)" offset="0.976562"/><stop stop-opacity="1" stop-color="rgb(76.475525%, 0.83313%, 100%)" offset="0.980469"/><stop stop-opacity="1" stop-color="rgb(76.780701%, 0.666809%, 100%)" offset="0.984375"/><stop stop-opacity="1" stop-color="rgb(77.084351%, 0.498962%, 100%)" offset="0.988281"/><stop stop-opacity="1" stop-color="rgb(77.389526%, 0.332642%, 100%)" offset="0.992188"/><stop stop-opacity="1" stop-color="rgb(77.694702%, 0.166321%, 100%)" offset="0.996094"/><stop stop-opacity="1" stop-color="rgb(77.999878%, 0%, 100%)" offset="1"/></linearGradient></defs><g clip-path="url(#31920d040f)"><g clip-path="url(#933c4dc833)"><path fill="url(#da26af40a3)" d="M 79.71875 5.226562 L 79.71875 16.582031 L 119.5 16.582031 L 119.5 5.226562 Z M 79.71875 5.226562 " fill-rule="nonzero"/></g></g><g fill="#000000" fill-opacity="1"><g transform="translate(79.718927, 15.484319)"><g><path d="M 13.253906 -9.289062 C 11.839844 -9.269531 10.839844 -8.492188 10.359375 -7.128906 C 9.859375 -8.515625 8.722656 -9.289062 7.105469 -9.289062 C 5.898438 -9.269531 4.988281 -8.722656 4.441406 -7.675781 L 4.441406 -9.109375 L 0.75 -9.109375 L 0.75 0 L 4.441406 0 L 4.441406 -4.53125 C 4.667969 -5.625 5.144531 -6.214844 5.785156 -6.214844 C 6.535156 -6.214844 6.945312 -5.375 6.945312 -3.871094 L 6.945312 0 L 10.65625 0 L 10.65625 -4.714844 C 10.882812 -5.671875 11.339844 -6.214844 11.910156 -6.214844 C 12.660156 -6.214844 13.09375 -5.375 13.09375 -3.871094 L 13.09375 0 L 16.78125 0 L 16.78125 -5.167969 C 16.78125 -7.789062 15.507812 -9.289062 13.253906 -9.289062 Z M 13.253906 -9.289062 "/></g></g></g><g fill="#000000" fill-opacity="1"><g transform="translate(97.115996, 15.484319)"><g><path d="M 10.453125 -9.109375 L 6.738281 -9.109375 L 6.738281 -7.855469 C 6.214844 -8.789062 5.417969 -9.289062 4.417969 -9.289062 C 1.933594 -9.289062 0.546875 -7.582031 0.546875 -4.554688 C 0.546875 -1.546875 1.933594 0.183594 4.417969 0.183594 C 5.417969 0.183594 6.214844 -0.339844 6.738281 -1.273438 L 6.738281 0 L 10.453125 0 Z M 5.488281 -2.800781 C 4.644531 -2.800781 4.191406 -3.4375 4.191406 -4.554688 C 4.191406 -5.691406 4.644531 -6.332031 5.488281 -6.332031 C 6.308594 -6.332031 6.738281 -5.691406 6.738281 -4.554688 C 6.738281 -3.4375 6.308594 -2.800781 5.488281 -2.800781 Z M 5.488281 -2.800781 "/></g></g></g><g fill="#000000" fill-opacity="1"><g transform="translate(108.296576, 15.484319)"><g><path d="M 7.558594 -4.507812 L 10.90625 -9.109375 L 7.082031 -9.109375 L 5.601562 -7.128906 L 4.144531 -9.109375 L 0.320312 -9.109375 L 3.667969 -4.507812 L 0.320312 0 L 4.257812 0 L 5.601562 -1.84375 L 6.945312 0 L 10.90625 0 Z M 7.558594 -4.507812 "/></g></g></g><g fill="#ffffff" fill-opacity="1"><g transform="translate(8.021225, 17.847976)"><g><path d="M 8.953125 -3.539062 C 8.824219 -3.652344 8.617188 -3.636719 8.507812 -3.507812 C 7.238281 -2.015625 6.378906 -1.636719 6 -1.777344 C 5.667969 -1.90625 5.476562 -2.539062 5.492188 -3.539062 C 5.492188 -3.714844 5.507812 -4.144531 5.160156 -4.222656 C 4.761719 -4.316406 4.476562 -3.855469 3.636719 -2.09375 C 3.492188 -1.792969 3.363281 -1.523438 3.285156 -1.363281 C 3.191406 -1.191406 3.125 -1.09375 3.078125 -1.046875 C 3 -1.207031 2.890625 -1.617188 2.90625 -2.238281 C 2.90625 -2.554688 2.90625 -2.824219 2.921875 -3.046875 C 2.9375 -3.746094 2.953125 -4 2.667969 -4.109375 C 2.414062 -4.191406 2.238281 -3.953125 2.191406 -3.871094 C 1.492188 -2.921875 0.871094 -1.953125 0.222656 -0.777344 C 0.476562 -1.871094 0.9375 -3.445312 1.523438 -4.761719 C 1.585938 -4.921875 1.523438 -5.109375 1.363281 -5.175781 C 1.207031 -5.238281 1.03125 -5.175781 0.953125 -5.015625 C 0.507812 -3.984375 0.0625 -2.667969 -0.269531 -1.363281 C -0.792969 0.730469 -0.585938 0.824219 -0.398438 0.921875 C -0.347656 0.9375 -0.300781 0.953125 -0.253906 0.953125 C -0.09375 0.953125 0.046875 0.839844 0.175781 0.601562 C 0.9375 -0.855469 1.570312 -1.9375 2.300781 -3 C 2.300781 -2.777344 2.285156 -2.523438 2.285156 -2.238281 C 2.285156 -1.746094 2.347656 -0.570312 2.9375 -0.414062 C 3.414062 -0.300781 3.714844 -0.890625 3.824219 -1.078125 C 3.921875 -1.253906 4.046875 -1.523438 4.191406 -1.824219 C 4.363281 -2.191406 4.652344 -2.792969 4.890625 -3.207031 C 4.921875 -2.09375 5.222656 -1.414062 5.792969 -1.207031 C 6.570312 -0.90625 7.632812 -1.554688 8.984375 -3.109375 C 9.09375 -3.238281 9.078125 -3.429688 8.953125 -3.539062 Z M 8.953125 -3.539062 "/></g></g></g><g fill="#ffffff" fill-opacity="1"><g transform="translate(16.28807, 17.847976)"><g><path d="M 7.761719 -3.492188 C 7.667969 -3.636719 7.476562 -3.667969 7.332031 -3.570312 C 5.96875 -2.683594 4.570312 -1.699219 3.238281 -0.460938 C 3.429688 -1.636719 3.617188 -2.890625 3.792969 -4.207031 C 3.824219 -4.347656 3.730469 -4.492188 3.585938 -4.539062 C 3.460938 -4.585938 3.300781 -4.523438 3.238281 -4.398438 C 2.921875 -3.855469 2.222656 -2.746094 1.601562 -2 C 1.382812 -1.730469 1.160156 -1.585938 1.046875 -1.667969 C 0.777344 -1.824219 0.585938 -2.921875 1.207031 -4.429688 C 1.269531 -4.585938 1.191406 -4.761719 1.046875 -4.824219 C 0.890625 -4.890625 0.714844 -4.808594 0.652344 -4.652344 C 0 -3.0625 0.03125 -1.554688 0.746094 -1.144531 C 0.921875 -1.015625 1.429688 -0.839844 2.0625 -1.601562 C 2.398438 -2 2.714844 -2.445312 3 -2.871094 C 2.839844 -1.777344 2.683594 -0.730469 2.507812 0.269531 C 1.175781 1.636719 -0.078125 3.285156 -1.160156 5.378906 C -2.96875 8.855469 -3.300781 12.714844 -2.398438 13.824219 C -2.222656 14.046875 -2 14.15625 -1.761719 14.15625 C -1.683594 14.15625 -1.617188 14.140625 -1.539062 14.125 C -0.507812 13.824219 0.414062 11.539062 1.015625 9.667969 C 1.761719 7.332031 2.445312 4.285156 3.078125 0.554688 C 4.554688 -0.921875 6.125 -2.0625 7.667969 -3.0625 C 7.808594 -3.160156 7.855469 -3.347656 7.761719 -3.492188 Z M 0.429688 9.476562 C -0.714844 13.09375 -1.539062 13.492188 -1.699219 13.539062 C -1.761719 13.554688 -1.824219 13.554688 -1.921875 13.445312 C -2.492188 12.746094 -2.539062 9.363281 -0.617188 5.652344 C 0.269531 3.953125 1.253906 2.554688 2.316406 1.363281 C 1.746094 4.652344 1.109375 7.363281 0.429688 9.476562 Z M 0.429688 9.476562 "/></g></g></g><g fill="#ffffff" fill-opacity="1"><g transform="translate(23.325444, 15.736523)"><g><path d="M 6.050781 -4.015625 L 9.070312 -3.535156 C 8.589844 -1.191406 7.070312 0.152344 4.84375 0.152344 C 2.074219 0.152344 0.519531 -1.652344 0.519531 -4.804688 C 0.519531 -7.972656 2.074219 -9.761719 4.84375 -9.761719 C 7.070312 -9.761719 8.589844 -8.433594 9.070312 -6.070312 L 6.050781 -5.589844 C 5.898438 -6.53125 5.457031 -7.070312 4.859375 -7.070312 C 4.054688 -7.070312 3.59375 -6.265625 3.59375 -4.804688 C 3.59375 -3.363281 4.054688 -2.554688 4.859375 -2.554688 C 5.496094 -2.554688 5.917969 -3.074219 6.050781 -4.015625 Z M 6.050781 -4.015625 "/></g></g></g><g fill="#ffffff" fill-opacity="1"><g transform="translate(32.894071, 15.736523)"><g><path d="M 6.898438 -1.402344 L 7.398438 0 L 10.433594 0 L 6.878906 -9.605469 L 3.726562 -9.605469 L 0.132812 0 L 3.152344 0 L 3.667969 -1.402344 Z M 6.050781 -3.707031 L 4.515625 -3.707031 L 5.304688 -6.339844 Z M 6.050781 -3.707031 "/></g></g></g><g fill="#ffffff" fill-opacity="1"><g transform="translate(43.442618, 15.736523)"><g><path d="M 7.898438 -4.148438 C 8.609375 -4.648438 8.992188 -5.457031 8.992188 -6.53125 C 8.992188 -8.492188 7.800781 -9.605469 5.707031 -9.605469 L 0.632812 -9.605469 L 0.632812 0 L 3.746094 0 L 3.746094 -3.457031 L 4.898438 -3.457031 C 5.667969 -3.324219 6.089844 -2.804688 6.089844 -1.980469 L 6.089844 0 L 8.933594 0 L 8.933594 -1.574219 C 8.933594 -2.726562 8.570312 -3.613281 7.898438 -4.148438 Z M 5.285156 -5.765625 L 3.746094 -5.765625 L 3.746094 -7.207031 L 5.285156 -7.207031 C 5.859375 -7.207031 6.207031 -6.957031 6.207031 -6.476562 C 6.207031 -6.035156 5.859375 -5.765625 5.285156 -5.765625 Z M 5.285156 -5.765625 "/></g></g></g><g fill="#ffffff" fill-opacity="1"><g transform="translate(52.953601, 15.736523)"><g><path d="M 3.746094 -7.207031 L 7.992188 -7.207031 L 7.992188 -9.605469 L 0.632812 -9.605469 L 0.632812 0 L 7.992188 0 L 7.992188 -2.402344 L 3.746094 -2.402344 L 3.746094 -3.652344 L 7.992188 -3.652344 L 7.992188 -5.957031 L 3.746094 -5.957031 Z M 3.746094 -7.207031 "/></g></g></g><g fill="#ffffff" fill-opacity="1"><g transform="translate(61.580736, 15.736523)"><g><path d="M 3.746094 -7.207031 L 7.992188 -7.207031 L 7.992188 -9.605469 L 0.632812 -9.605469 L 0.632812 0 L 7.992188 0 L 7.992188 -2.402344 L 3.746094 -2.402344 L 3.746094 -3.652344 L 7.992188 -3.652344 L 7.992188 -5.957031 L 3.746094 -5.957031 Z M 3.746094 -7.207031 "/></g></g></g><g fill="#ffffff" fill-opacity="1"><g transform="translate(70.207871, 15.736523)"><g><path d="M 7.898438 -4.148438 C 8.609375 -4.648438 8.992188 -5.457031 8.992188 -6.53125 C 8.992188 -8.492188 7.800781 -9.605469 5.707031 -9.605469 L 0.632812 -9.605469 L 0.632812 0 L 3.746094 0 L 3.746094 -3.457031 L 4.898438 -3.457031 C 5.667969 -3.324219 6.089844 -2.804688 6.089844 -1.980469 L 6.089844 0 L 8.933594 0 L 8.933594 -1.574219 C 8.933594 -2.726562 8.570312 -3.613281 7.898438 -4.148438 Z M 5.285156 -5.765625 L 3.746094 -5.765625 L 3.746094 -7.207031 L 5.285156 -7.207031 C 5.859375 -7.207031 6.207031 -6.957031 6.207031 -6.476562 C 6.207031 -6.035156 5.859375 -5.765625 5.285156 -5.765625 Z M 5.285156 -5.765625 "/></g></g></g><g fill="#ffffff" fill-opacity="1"><g transform="translate(123.236797, 16.22227)"><g><path d="M 7.894531 -4.148438 C 8.605469 -4.648438 8.992188 -5.457031 8.992188 -6.53125 C 8.992188 -8.492188 7.800781 -9.605469 5.707031 -9.605469 L 0.632812 -9.605469 L 0.632812 0 L 3.746094 0 L 3.746094 -3.457031 L 4.898438 -3.457031 C 5.667969 -3.324219 6.089844 -2.804688 6.089844 -1.980469 L 6.089844 0 L 8.933594 0 L 8.933594 -1.574219 C 8.933594 -2.726562 8.566406 -3.613281 7.894531 -4.148438 Z M 5.28125 -5.761719 L 3.746094 -5.761719 L 3.746094 -7.203125 L 5.28125 -7.203125 C 5.859375 -7.203125 6.207031 -6.953125 6.207031 -6.472656 C 6.207031 -6.03125 5.859375 -5.761719 5.28125 -5.761719 Z M 5.28125 -5.761719 "/></g></g></g><g fill="#ffffff" fill-opacity="1"><g transform="translate(132.745213, 16.22227)"><g><path d="M 8.816406 -3.84375 C 8.816406 -6.398438 7.300781 -7.839844 4.628906 -7.839844 C 1.960938 -7.839844 0.460938 -6.398438 0.460938 -3.84375 C 0.460938 -1.304688 1.960938 0.152344 4.628906 0.152344 C 6.550781 0.152344 7.953125 -0.691406 8.53125 -2.191406 L 5.4375 -2.707031 C 5.300781 -2.363281 5.035156 -2.171875 4.667969 -2.171875 C 4.1875 -2.171875 3.863281 -2.441406 3.667969 -2.957031 L 8.703125 -2.957031 C 8.761719 -3.246094 8.816406 -3.554688 8.816406 -3.84375 Z M 5.609375 -4.554688 L 3.59375 -4.554688 C 3.746094 -5.1875 4.09375 -5.53125 4.628906 -5.53125 C 5.015625 -5.53125 5.359375 -5.1875 5.609375 -4.554688 Z M 5.609375 -4.554688 "/></g></g></g><g fill="#ffffff" fill-opacity="1"><g transform="translate(142.003908, 16.22227)"><g><path d="M 2.34375 -2.824219 C 2.996094 -2.34375 3.785156 -2.09375 4.515625 -2.09375 C 5.457031 -2.09375 5.972656 -2.246094 5.972656 -2.496094 C 5.972656 -3.34375 0.347656 -1.84375 0.347656 -5.339844 C 0.347656 -6.933594 1.804688 -7.839844 4.417969 -7.839844 C 5.972656 -7.839844 7.414062 -7.300781 8.414062 -6.359375 L 6.703125 -4.859375 C 6.03125 -5.359375 5.246094 -5.628906 4.515625 -5.628906 C 3.59375 -5.628906 3.074219 -5.457031 3.074219 -5.1875 C 3.074219 -4.457031 8.703125 -5.859375 8.703125 -2.363281 C 8.703125 -0.75 7.222656 0.152344 4.609375 0.132812 C 3.226562 0.132812 1.785156 -0.402344 0.632812 -1.324219 Z M 2.34375 -2.824219 "/></g></g></g><g fill="#ffffff" fill-opacity="1"><g transform="translate(151.032101, 16.22227)"><g><path d="M 8.875 -7.683594 L 5.742188 -7.683594 L 5.742188 -3.878906 C 5.550781 -2.957031 5.167969 -2.460938 4.628906 -2.460938 C 3.996094 -2.460938 3.628906 -3.167969 3.628906 -4.417969 L 3.628906 -7.683594 L 0.519531 -7.683594 L 0.519531 -3.34375 C 0.519531 -1.113281 1.59375 0.152344 3.496094 0.152344 C 4.535156 0.132812 5.300781 -0.347656 5.742188 -1.230469 L 5.742188 0 L 8.875 0 Z M 8.875 -7.683594 "/></g></g></g><g fill="#ffffff" fill-opacity="1"><g transform="translate(160.521314, 16.22227)"><g><path d="M 11.179688 -7.839844 C 9.988281 -7.820312 9.144531 -7.164062 8.742188 -6.011719 C 8.316406 -7.183594 7.359375 -7.839844 5.992188 -7.839844 C 4.976562 -7.820312 4.207031 -7.359375 3.746094 -6.472656 L 3.746094 -7.683594 L 0.632812 -7.683594 L 0.632812 0 L 3.746094 0 L 3.746094 -3.824219 C 3.9375 -4.746094 4.339844 -5.246094 4.878906 -5.246094 C 5.511719 -5.246094 5.859375 -4.535156 5.859375 -3.265625 L 5.859375 0 L 8.992188 0 L 8.992188 -3.976562 C 9.183594 -4.785156 9.566406 -5.246094 10.046875 -5.246094 C 10.679688 -5.246094 11.046875 -4.535156 11.046875 -3.265625 L 11.046875 0 L 14.160156 0 L 14.160156 -4.359375 C 14.160156 -6.570312 13.082031 -7.839844 11.179688 -7.839844 Z M 11.179688 -7.839844 "/></g></g></g><g fill="#ffffff" fill-opacity="1"><g transform="translate(175.196935, 16.22227)"><g><path d="M 8.816406 -3.84375 C 8.816406 -6.398438 7.300781 -7.839844 4.628906 -7.839844 C 1.960938 -7.839844 0.460938 -6.398438 0.460938 -3.84375 C 0.460938 -1.304688 1.960938 0.152344 4.628906 0.152344 C 6.550781 0.152344 7.953125 -0.691406 8.53125 -2.191406 L 5.4375 -2.707031 C 5.300781 -2.363281 5.035156 -2.171875 4.667969 -2.171875 C 4.1875 -2.171875 3.863281 -2.441406 3.667969 -2.957031 L 8.703125 -2.957031 C 8.761719 -3.246094 8.816406 -3.554688 8.816406 -3.84375 Z M 5.609375 -4.554688 L 3.59375 -4.554688 C 3.746094 -5.1875 4.09375 -5.53125 4.628906 -5.53125 C 5.015625 -5.53125 5.359375 -5.1875 5.609375 -4.554688 Z M 5.609375 -4.554688 "/></g></g></g></svg>