<svg xmlns="http://www.w3.org/2000/svg" xmlns:xlink="http://www.w3.org/1999/xlink" width="500" zoomAndPan="magnify" viewBox="0 0 375 74.999997" height="100" preserveAspectRatio="xMidYMid meet" version="1.0"><defs><g/><clipPath id="38d410a4c1"><path d="M 224.570312 13.550781 L 332.832031 13.550781 L 332.832031 46.390625 L 224.570312 46.390625 Z M 224.570312 13.550781 " clip-rule="nonzero"/></clipPath><clipPath id="fd4dee0110"><path d="M 226.070312 13.550781 L 331.332031 13.550781 C 331.730469 13.550781 332.109375 13.710938 332.390625 13.992188 C 332.671875 14.273438 332.832031 14.652344 332.832031 15.050781 L 332.832031 44.890625 C 332.832031 45.289062 332.671875 45.671875 332.390625 45.953125 C 332.109375 46.234375 331.730469 46.390625 331.332031 46.390625 L 226.070312 46.390625 C 225.671875 46.390625 225.289062 46.234375 225.007812 45.953125 C 224.726562 45.671875 224.570312 45.289062 224.570312 44.890625 L 224.570312 15.050781 C 224.570312 14.652344 224.726562 14.273438 225.007812 13.992188 C 225.289062 13.710938 225.671875 13.550781 226.070312 13.550781 Z M 226.070312 13.550781 " clip-rule="nonzero"/></clipPath><linearGradient x1="-0.0000183429" gradientTransform="matrix(0.422894, 0, 0, 0.128281, 224.570299, 13.551321)" y1="0" x2="255.999976" gradientUnits="userSpaceOnUse" y2="0" id="b7946d673a"><stop stop-opacity="1" stop-color="rgb(0%, 28.999329%, 67.799377%)" offset="0"/><stop stop-opacity="1" stop-color="rgb(0.309753%, 29.051208%, 67.886353%)" offset="0.00390625"/><stop stop-opacity="1" stop-color="rgb(0.621033%, 29.104614%, 67.974854%)" offset="0.0078125"/><stop stop-opacity="1" stop-color="rgb(0.932312%, 29.156494%, 68.061829%)" offset="0.0117188"/><stop stop-opacity="1" stop-color="rgb(1.243591%, 29.208374%, 68.148804%)" offset="0.015625"/><stop stop-opacity="1" stop-color="rgb(1.553345%, 29.260254%, 68.235779%)" offset="0.0195312"/><stop stop-opacity="1" stop-color="rgb(1.864624%, 29.31366%, 68.32428%)" offset="0.0234375"/><stop stop-opacity="1" stop-color="rgb(2.175903%, 29.36554%, 68.411255%)" offset="0.0273438"/><stop stop-opacity="1" stop-color="rgb(2.487183%, 29.417419%, 68.499756%)" offset="0.03125"/><stop stop-opacity="1" stop-color="rgb(2.796936%, 29.469299%, 68.586731%)" offset="0.0351562"/><stop stop-opacity="1" stop-color="rgb(3.108215%, 29.522705%, 68.673706%)" offset="0.0390625"/><stop stop-opacity="1" stop-color="rgb(3.419495%, 29.574585%, 68.760681%)" offset="0.0429688"/><stop stop-opacity="1" stop-color="rgb(3.730774%, 29.627991%, 68.849182%)" offset="0.046875"/><stop stop-opacity="1" stop-color="rgb(4.040527%, 29.679871%, 68.936157%)" offset="0.0507812"/><stop stop-opacity="1" stop-color="rgb(4.351807%, 29.73175%, 69.024658%)" offset="0.0546875"/><stop stop-opacity="1" stop-color="rgb(4.663086%, 29.78363%, 69.111633%)" offset="0.0585938"/><stop stop-opacity="1" stop-color="rgb(4.974365%, 29.837036%, 69.198608%)" offset="0.0625"/><stop stop-opacity="1" stop-color="rgb(5.284119%, 29.888916%, 69.285583%)" offset="0.0664062"/><stop stop-opacity="1" stop-color="rgb(5.595398%, 29.940796%, 69.374084%)" offset="0.0703125"/><stop stop-opacity="1" stop-color="rgb(5.906677%, 29.992676%, 69.46106%)" offset="0.0742188"/><stop stop-opacity="1" stop-color="rgb(6.217957%, 30.046082%, 69.549561%)" offset="0.078125"/><stop stop-opacity="1" stop-color="rgb(6.529236%, 30.097961%, 69.636536%)" offset="0.0820312"/><stop stop-opacity="1" stop-color="rgb(6.840515%, 30.151367%, 69.723511%)" offset="0.0859375"/><stop stop-opacity="1" stop-color="rgb(7.150269%, 30.203247%, 69.810486%)" offset="0.0898438"/><stop stop-opacity="1" stop-color="rgb(7.461548%, 30.255127%, 69.898987%)" offset="0.09375"/><stop stop-opacity="1" stop-color="rgb(7.772827%, 30.307007%, 69.985962%)" offset="0.0976562"/><stop stop-opacity="1" stop-color="rgb(8.084106%, 30.360413%, 70.074463%)" offset="0.101562"/><stop stop-opacity="1" stop-color="rgb(8.39386%, 30.412292%, 70.161438%)" offset="0.105469"/><stop stop-opacity="1" stop-color="rgb(8.705139%, 30.464172%, 70.249939%)" offset="0.109375"/><stop stop-opacity="1" stop-color="rgb(9.016418%, 30.516052%, 70.336914%)" offset="0.113281"/><stop stop-opacity="1" stop-color="rgb(9.327698%, 30.569458%, 70.423889%)" offset="0.117188"/><stop stop-opacity="1" stop-color="rgb(9.637451%, 30.621338%, 70.510864%)" offset="0.121094"/><stop stop-opacity="1" stop-color="rgb(9.94873%, 30.674744%, 70.599365%)" offset="0.125"/><stop stop-opacity="1" stop-color="rgb(10.26001%, 30.726624%, 70.68634%)" offset="0.128906"/><stop stop-opacity="1" stop-color="rgb(10.571289%, 30.778503%, 70.774841%)" offset="0.132812"/><stop stop-opacity="1" stop-color="rgb(10.881042%, 30.830383%, 70.861816%)" offset="0.136719"/><stop stop-opacity="1" stop-color="rgb(11.192322%, 30.883789%, 70.948792%)" offset="0.140625"/><stop stop-opacity="1" stop-color="rgb(11.503601%, 30.935669%, 71.035767%)" offset="0.144531"/><stop stop-opacity="1" stop-color="rgb(11.81488%, 30.987549%, 71.124268%)" offset="0.148438"/><stop stop-opacity="1" stop-color="rgb(12.12616%, 31.039429%, 71.211243%)" offset="0.152344"/><stop stop-opacity="1" stop-color="rgb(12.437439%, 31.092834%, 71.299744%)" offset="0.15625"/><stop stop-opacity="1" stop-color="rgb(12.747192%, 31.144714%, 71.386719%)" offset="0.160156"/><stop stop-opacity="1" stop-color="rgb(13.058472%, 31.19812%, 71.473694%)" offset="0.164062"/><stop stop-opacity="1" stop-color="rgb(13.369751%, 31.25%, 71.560669%)" offset="0.167969"/><stop stop-opacity="1" stop-color="rgb(13.68103%, 31.30188%, 71.64917%)" offset="0.171875"/><stop stop-opacity="1" stop-color="rgb(13.990784%, 31.35376%, 71.736145%)" offset="0.175781"/><stop stop-opacity="1" stop-color="rgb(14.302063%, 31.407166%, 71.824646%)" offset="0.179688"/><stop stop-opacity="1" stop-color="rgb(14.613342%, 31.459045%, 71.911621%)" offset="0.183594"/><stop stop-opacity="1" stop-color="rgb(14.924622%, 31.512451%, 71.998596%)" offset="0.1875"/><stop stop-opacity="1" stop-color="rgb(15.234375%, 31.564331%, 72.085571%)" offset="0.191406"/><stop stop-opacity="1" stop-color="rgb(15.545654%, 31.616211%, 72.174072%)" offset="0.195312"/><stop stop-opacity="1" stop-color="rgb(15.856934%, 31.668091%, 72.261047%)" offset="0.199219"/><stop stop-opacity="1" stop-color="rgb(16.168213%, 31.721497%, 72.349548%)" offset="0.203125"/><stop stop-opacity="1" stop-color="rgb(16.477966%, 31.773376%, 72.436523%)" offset="0.207031"/><stop stop-opacity="1" stop-color="rgb(16.789246%, 31.825256%, 72.523499%)" offset="0.210938"/><stop stop-opacity="1" stop-color="rgb(17.100525%, 31.877136%, 72.610474%)" offset="0.214844"/><stop stop-opacity="1" stop-color="rgb(17.411804%, 31.930542%, 72.698975%)" offset="0.21875"/><stop stop-opacity="1" stop-color="rgb(17.723083%, 31.982422%, 72.78595%)" offset="0.222656"/><stop stop-opacity="1" stop-color="rgb(18.034363%, 32.035828%, 72.874451%)" offset="0.226562"/><stop stop-opacity="1" stop-color="rgb(18.344116%, 32.087708%, 72.961426%)" offset="0.230469"/><stop stop-opacity="1" stop-color="rgb(18.655396%, 32.139587%, 73.049927%)" offset="0.234375"/><stop stop-opacity="1" stop-color="rgb(18.966675%, 32.191467%, 73.136902%)" offset="0.238281"/><stop stop-opacity="1" stop-color="rgb(19.277954%, 32.244873%, 73.223877%)" offset="0.242188"/><stop stop-opacity="1" stop-color="rgb(19.587708%, 32.296753%, 73.310852%)" offset="0.246094"/><stop stop-opacity="1" stop-color="rgb(19.898987%, 32.348633%, 73.399353%)" offset="0.25"/><stop stop-opacity="1" stop-color="rgb(20.210266%, 32.400513%, 73.486328%)" offset="0.253906"/><stop stop-opacity="1" stop-color="rgb(20.521545%, 32.453918%, 73.574829%)" offset="0.257812"/><stop stop-opacity="1" stop-color="rgb(20.831299%, 32.505798%, 73.661804%)" offset="0.261719"/><stop stop-opacity="1" stop-color="rgb(21.142578%, 32.559204%, 73.748779%)" offset="0.265625"/><stop stop-opacity="1" stop-color="rgb(21.453857%, 32.611084%, 73.835754%)" offset="0.269531"/><stop stop-opacity="1" stop-color="rgb(21.765137%, 32.662964%, 73.924255%)" offset="0.273438"/><stop stop-opacity="1" stop-color="rgb(22.07489%, 32.714844%, 74.01123%)" offset="0.277344"/><stop stop-opacity="1" stop-color="rgb(22.386169%, 32.76825%, 74.099731%)" offset="0.28125"/><stop stop-opacity="1" stop-color="rgb(22.697449%, 32.820129%, 74.186707%)" offset="0.285156"/><stop stop-opacity="1" stop-color="rgb(23.008728%, 32.872009%, 74.273682%)" offset="0.289062"/><stop stop-opacity="1" stop-color="rgb(23.318481%, 32.923889%, 74.360657%)" offset="0.292969"/><stop stop-opacity="1" stop-color="rgb(23.629761%, 32.977295%, 74.449158%)" offset="0.296875"/><stop stop-opacity="1" stop-color="rgb(23.94104%, 33.029175%, 74.536133%)" offset="0.300781"/><stop stop-opacity="1" stop-color="rgb(24.252319%, 33.082581%, 74.624634%)" offset="0.304688"/><stop stop-opacity="1" stop-color="rgb(24.563599%, 33.13446%, 74.711609%)" offset="0.308594"/><stop stop-opacity="1" stop-color="rgb(24.874878%, 33.18634%, 74.798584%)" offset="0.3125"/><stop stop-opacity="1" stop-color="rgb(25.184631%, 33.23822%, 74.885559%)" offset="0.316406"/><stop stop-opacity="1" stop-color="rgb(25.495911%, 33.291626%, 74.97406%)" offset="0.320312"/><stop stop-opacity="1" stop-color="rgb(25.80719%, 33.343506%, 75.061035%)" offset="0.324219"/><stop stop-opacity="1" stop-color="rgb(26.118469%, 33.395386%, 75.149536%)" offset="0.328125"/><stop stop-opacity="1" stop-color="rgb(26.428223%, 33.447266%, 75.236511%)" offset="0.332031"/><stop stop-opacity="1" stop-color="rgb(26.739502%, 33.500671%, 75.323486%)" offset="0.335938"/><stop stop-opacity="1" stop-color="rgb(27.050781%, 33.552551%, 75.410461%)" offset="0.339844"/><stop stop-opacity="1" stop-color="rgb(27.362061%, 33.605957%, 75.498962%)" offset="0.34375"/><stop stop-opacity="1" stop-color="rgb(27.671814%, 33.657837%, 75.585938%)" offset="0.347656"/><stop stop-opacity="1" stop-color="rgb(27.983093%, 33.709717%, 75.674438%)" offset="0.351562"/><stop stop-opacity="1" stop-color="rgb(28.294373%, 33.761597%, 75.761414%)" offset="0.355469"/><stop stop-opacity="1" stop-color="rgb(28.605652%, 33.815002%, 75.849915%)" offset="0.359375"/><stop stop-opacity="1" stop-color="rgb(28.915405%, 33.866882%, 75.93689%)" offset="0.363281"/><stop stop-opacity="1" stop-color="rgb(29.226685%, 33.920288%, 76.023865%)" offset="0.367188"/><stop stop-opacity="1" stop-color="rgb(29.537964%, 33.972168%, 76.11084%)" offset="0.371094"/><stop stop-opacity="1" stop-color="rgb(29.849243%, 34.024048%, 76.199341%)" offset="0.375"/><stop stop-opacity="1" stop-color="rgb(30.160522%, 34.075928%, 76.286316%)" offset="0.378906"/><stop stop-opacity="1" stop-color="rgb(30.471802%, 34.129333%, 76.374817%)" offset="0.382812"/><stop stop-opacity="1" stop-color="rgb(30.781555%, 34.181213%, 76.461792%)" offset="0.386719"/><stop stop-opacity="1" stop-color="rgb(31.092834%, 34.233093%, 76.548767%)" offset="0.390625"/><stop stop-opacity="1" stop-color="rgb(31.404114%, 34.284973%, 76.635742%)" offset="0.394531"/><stop stop-opacity="1" stop-color="rgb(31.715393%, 34.338379%, 76.724243%)" offset="0.398438"/><stop stop-opacity="1" stop-color="rgb(32.025146%, 34.390259%, 76.811218%)" offset="0.402344"/><stop stop-opacity="1" stop-color="rgb(32.336426%, 34.443665%, 76.899719%)" offset="0.40625"/><stop stop-opacity="1" stop-color="rgb(32.647705%, 34.495544%, 76.986694%)" offset="0.410156"/><stop stop-opacity="1" stop-color="rgb(32.958984%, 34.547424%, 77.073669%)" offset="0.414062"/><stop stop-opacity="1" stop-color="rgb(33.268738%, 34.599304%, 77.160645%)" offset="0.417969"/><stop stop-opacity="1" stop-color="rgb(33.580017%, 34.65271%, 77.249146%)" offset="0.421875"/><stop stop-opacity="1" stop-color="rgb(33.891296%, 34.70459%, 77.336121%)" offset="0.425781"/><stop stop-opacity="1" stop-color="rgb(34.202576%, 34.75647%, 77.424622%)" offset="0.429688"/><stop stop-opacity="1" stop-color="rgb(34.512329%, 34.80835%, 77.511597%)" offset="0.433594"/><stop stop-opacity="1" stop-color="rgb(34.823608%, 34.861755%, 77.598572%)" offset="0.4375"/><stop stop-opacity="1" stop-color="rgb(35.134888%, 34.913635%, 77.685547%)" offset="0.441406"/><stop stop-opacity="1" stop-color="rgb(35.446167%, 34.967041%, 77.774048%)" offset="0.445312"/><stop stop-opacity="1" stop-color="rgb(35.757446%, 35.018921%, 77.861023%)" offset="0.449219"/><stop stop-opacity="1" stop-color="rgb(36.068726%, 35.070801%, 77.949524%)" offset="0.453125"/><stop stop-opacity="1" stop-color="rgb(36.378479%, 35.122681%, 78.036499%)" offset="0.457031"/><stop stop-opacity="1" stop-color="rgb(36.689758%, 35.176086%, 78.123474%)" offset="0.460938"/><stop stop-opacity="1" stop-color="rgb(37.001038%, 35.227966%, 78.210449%)" offset="0.464844"/><stop stop-opacity="1" stop-color="rgb(37.312317%, 35.279846%, 78.29895%)" offset="0.46875"/><stop stop-opacity="1" stop-color="rgb(37.62207%, 35.331726%, 78.385925%)" offset="0.472656"/><stop stop-opacity="1" stop-color="rgb(37.93335%, 35.385132%, 78.474426%)" offset="0.476562"/><stop stop-opacity="1" stop-color="rgb(38.244629%, 35.437012%, 78.561401%)" offset="0.480469"/><stop stop-opacity="1" stop-color="rgb(38.555908%, 35.490417%, 78.649902%)" offset="0.484375"/><stop stop-opacity="1" stop-color="rgb(38.865662%, 35.542297%, 78.736877%)" offset="0.488281"/><stop stop-opacity="1" stop-color="rgb(39.176941%, 35.594177%, 78.823853%)" offset="0.492188"/><stop stop-opacity="1" stop-color="rgb(39.48822%, 35.646057%, 78.910828%)" offset="0.496094"/><stop stop-opacity="1" stop-color="rgb(39.7995%, 35.699463%, 78.999329%)" offset="0.5"/><stop stop-opacity="1" stop-color="rgb(40.109253%, 35.751343%, 79.086304%)" offset="0.503906"/><stop stop-opacity="1" stop-color="rgb(40.420532%, 35.803223%, 79.174805%)" offset="0.507812"/><stop stop-opacity="1" stop-color="rgb(40.731812%, 35.855103%, 79.26178%)" offset="0.511719"/><stop stop-opacity="1" stop-color="rgb(41.043091%, 35.908508%, 79.348755%)" offset="0.515625"/><stop stop-opacity="1" stop-color="rgb(41.352844%, 35.960388%, 79.43573%)" offset="0.519531"/><stop stop-opacity="1" stop-color="rgb(41.664124%, 36.013794%, 79.524231%)" offset="0.523438"/><stop stop-opacity="1" stop-color="rgb(41.975403%, 36.065674%, 79.611206%)" offset="0.527344"/><stop stop-opacity="1" stop-color="rgb(42.286682%, 36.117554%, 79.699707%)" offset="0.53125"/><stop stop-opacity="1" stop-color="rgb(42.597961%, 36.169434%, 79.786682%)" offset="0.535156"/><stop stop-opacity="1" stop-color="rgb(42.909241%, 36.222839%, 79.873657%)" offset="0.539062"/><stop stop-opacity="1" stop-color="rgb(43.218994%, 36.274719%, 79.960632%)" offset="0.542969"/><stop stop-opacity="1" stop-color="rgb(43.530273%, 36.326599%, 80.049133%)" offset="0.546875"/><stop stop-opacity="1" stop-color="rgb(43.841553%, 36.378479%, 80.136108%)" offset="0.550781"/><stop stop-opacity="1" stop-color="rgb(44.152832%, 36.431885%, 80.224609%)" offset="0.554688"/><stop stop-opacity="1" stop-color="rgb(44.462585%, 36.483765%, 80.311584%)" offset="0.558594"/><stop stop-opacity="1" stop-color="rgb(44.773865%, 36.53717%, 80.39856%)" offset="0.5625"/><stop stop-opacity="1" stop-color="rgb(45.085144%, 36.58905%, 80.485535%)" offset="0.566406"/><stop stop-opacity="1" stop-color="rgb(45.396423%, 36.64093%, 80.574036%)" offset="0.570312"/><stop stop-opacity="1" stop-color="rgb(45.706177%, 36.69281%, 80.661011%)" offset="0.574219"/><stop stop-opacity="1" stop-color="rgb(46.017456%, 36.746216%, 80.749512%)" offset="0.578125"/><stop stop-opacity="1" stop-color="rgb(46.328735%, 36.798096%, 80.836487%)" offset="0.582031"/><stop stop-opacity="1" stop-color="rgb(46.640015%, 36.851501%, 80.924988%)" offset="0.585938"/><stop stop-opacity="1" stop-color="rgb(46.949768%, 36.903381%, 81.011963%)" offset="0.589844"/><stop stop-opacity="1" stop-color="rgb(47.261047%, 36.955261%, 81.098938%)" offset="0.59375"/><stop stop-opacity="1" stop-color="rgb(47.572327%, 37.007141%, 81.185913%)" offset="0.597656"/><stop stop-opacity="1" stop-color="rgb(47.883606%, 37.060547%, 81.274414%)" offset="0.601562"/><stop stop-opacity="1" stop-color="rgb(48.194885%, 37.112427%, 81.361389%)" offset="0.605469"/><stop stop-opacity="1" stop-color="rgb(48.506165%, 37.164307%, 81.44989%)" offset="0.609375"/><stop stop-opacity="1" stop-color="rgb(48.815918%, 37.216187%, 81.536865%)" offset="0.613281"/><stop stop-opacity="1" stop-color="rgb(49.127197%, 37.269592%, 81.62384%)" offset="0.617188"/><stop stop-opacity="1" stop-color="rgb(49.438477%, 37.321472%, 81.710815%)" offset="0.621094"/><stop stop-opacity="1" stop-color="rgb(49.749756%, 37.374878%, 81.799316%)" offset="0.625"/><stop stop-opacity="1" stop-color="rgb(50.059509%, 37.426758%, 81.886292%)" offset="0.628906"/><stop stop-opacity="1" stop-color="rgb(50.370789%, 37.478638%, 81.974792%)" offset="0.632812"/><stop stop-opacity="1" stop-color="rgb(50.682068%, 37.530518%, 82.061768%)" offset="0.636719"/><stop stop-opacity="1" stop-color="rgb(50.993347%, 37.583923%, 82.148743%)" offset="0.640625"/><stop stop-opacity="1" stop-color="rgb(51.303101%, 37.635803%, 82.235718%)" offset="0.644531"/><stop stop-opacity="1" stop-color="rgb(51.61438%, 37.687683%, 82.324219%)" offset="0.648438"/><stop stop-opacity="1" stop-color="rgb(51.925659%, 37.739563%, 82.411194%)" offset="0.652344"/><stop stop-opacity="1" stop-color="rgb(52.236938%, 37.792969%, 82.499695%)" offset="0.65625"/><stop stop-opacity="1" stop-color="rgb(52.546692%, 37.844849%, 82.58667%)" offset="0.660156"/><stop stop-opacity="1" stop-color="rgb(52.857971%, 37.898254%, 82.673645%)" offset="0.664062"/><stop stop-opacity="1" stop-color="rgb(53.16925%, 37.950134%, 82.76062%)" offset="0.667969"/><stop stop-opacity="1" stop-color="rgb(53.48053%, 38.002014%, 82.849121%)" offset="0.671875"/><stop stop-opacity="1" stop-color="rgb(53.791809%, 38.053894%, 82.936096%)" offset="0.675781"/><stop stop-opacity="1" stop-color="rgb(54.103088%, 38.1073%, 83.024597%)" offset="0.679688"/><stop stop-opacity="1" stop-color="rgb(54.412842%, 38.15918%, 83.111572%)" offset="0.683594"/><stop stop-opacity="1" stop-color="rgb(54.724121%, 38.21106%, 83.198547%)" offset="0.6875"/><stop stop-opacity="1" stop-color="rgb(55.0354%, 38.262939%, 83.285522%)" offset="0.691406"/><stop stop-opacity="1" stop-color="rgb(55.34668%, 38.316345%, 83.374023%)" offset="0.695312"/><stop stop-opacity="1" stop-color="rgb(55.656433%, 38.368225%, 83.460999%)" offset="0.699219"/><stop stop-opacity="1" stop-color="rgb(55.967712%, 38.421631%, 83.5495%)" offset="0.703125"/><stop stop-opacity="1" stop-color="rgb(56.278992%, 38.473511%, 83.636475%)" offset="0.707031"/><stop stop-opacity="1" stop-color="rgb(56.590271%, 38.525391%, 83.724976%)" offset="0.710938"/><stop stop-opacity="1" stop-color="rgb(56.900024%, 38.577271%, 83.811951%)" offset="0.714844"/><stop stop-opacity="1" stop-color="rgb(57.211304%, 38.630676%, 83.898926%)" offset="0.71875"/><stop stop-opacity="1" stop-color="rgb(57.522583%, 38.682556%, 83.985901%)" offset="0.722656"/><stop stop-opacity="1" stop-color="rgb(57.833862%, 38.734436%, 84.074402%)" offset="0.726562"/><stop stop-opacity="1" stop-color="rgb(58.143616%, 38.786316%, 84.161377%)" offset="0.730469"/><stop stop-opacity="1" stop-color="rgb(58.454895%, 38.839722%, 84.249878%)" offset="0.734375"/><stop stop-opacity="1" stop-color="rgb(58.766174%, 38.891602%, 84.336853%)" offset="0.738281"/><stop stop-opacity="1" stop-color="rgb(59.077454%, 38.945007%, 84.423828%)" offset="0.742188"/><stop stop-opacity="1" stop-color="rgb(59.387207%, 38.996887%, 84.510803%)" offset="0.746094"/><stop stop-opacity="1" stop-color="rgb(59.698486%, 39.048767%, 84.599304%)" offset="0.75"/><stop stop-opacity="1" stop-color="rgb(60.009766%, 39.100647%, 84.686279%)" offset="0.753906"/><stop stop-opacity="1" stop-color="rgb(60.321045%, 39.154053%, 84.77478%)" offset="0.757812"/><stop stop-opacity="1" stop-color="rgb(60.632324%, 39.205933%, 84.861755%)" offset="0.761719"/><stop stop-opacity="1" stop-color="rgb(60.943604%, 39.259338%, 84.94873%)" offset="0.765625"/><stop stop-opacity="1" stop-color="rgb(61.253357%, 39.311218%, 85.035706%)" offset="0.769531"/><stop stop-opacity="1" stop-color="rgb(61.564636%, 39.363098%, 85.124207%)" offset="0.773438"/><stop stop-opacity="1" stop-color="rgb(61.875916%, 39.414978%, 85.211182%)" offset="0.777344"/><stop stop-opacity="1" stop-color="rgb(62.187195%, 39.468384%, 85.299683%)" offset="0.78125"/><stop stop-opacity="1" stop-color="rgb(62.496948%, 39.520264%, 85.386658%)" offset="0.785156"/><stop stop-opacity="1" stop-color="rgb(62.808228%, 39.572144%, 85.473633%)" offset="0.789062"/><stop stop-opacity="1" stop-color="rgb(63.119507%, 39.624023%, 85.560608%)" offset="0.792969"/><stop stop-opacity="1" stop-color="rgb(63.430786%, 39.677429%, 85.649109%)" offset="0.796875"/><stop stop-opacity="1" stop-color="rgb(63.74054%, 39.729309%, 85.736084%)" offset="0.800781"/><stop stop-opacity="1" stop-color="rgb(64.051819%, 39.782715%, 85.824585%)" offset="0.804688"/><stop stop-opacity="1" stop-color="rgb(64.363098%, 39.834595%, 85.91156%)" offset="0.808594"/><stop stop-opacity="1" stop-color="rgb(64.674377%, 39.886475%, 85.998535%)" offset="0.8125"/><stop stop-opacity="1" stop-color="rgb(64.984131%, 39.938354%, 86.08551%)" offset="0.816406"/><stop stop-opacity="1" stop-color="rgb(65.29541%, 39.99176%, 86.174011%)" offset="0.820312"/><stop stop-opacity="1" stop-color="rgb(65.606689%, 40.04364%, 86.260986%)" offset="0.824219"/><stop stop-opacity="1" stop-color="rgb(65.917969%, 40.09552%, 86.349487%)" offset="0.828125"/><stop stop-opacity="1" stop-color="rgb(66.229248%, 40.1474%, 86.436462%)" offset="0.832031"/><stop stop-opacity="1" stop-color="rgb(66.540527%, 40.200806%, 86.524963%)" offset="0.835938"/><stop stop-opacity="1" stop-color="rgb(66.850281%, 40.252686%, 86.611938%)" offset="0.839844"/><stop stop-opacity="1" stop-color="rgb(67.16156%, 40.306091%, 86.698914%)" offset="0.84375"/><stop stop-opacity="1" stop-color="rgb(67.472839%, 40.357971%, 86.785889%)" offset="0.847656"/><stop stop-opacity="1" stop-color="rgb(67.784119%, 40.409851%, 86.87439%)" offset="0.851562"/><stop stop-opacity="1" stop-color="rgb(68.093872%, 40.461731%, 86.961365%)" offset="0.855469"/><stop stop-opacity="1" stop-color="rgb(68.405151%, 40.515137%, 87.049866%)" offset="0.859375"/><stop stop-opacity="1" stop-color="rgb(68.716431%, 40.567017%, 87.136841%)" offset="0.863281"/><stop stop-opacity="1" stop-color="rgb(69.02771%, 40.618896%, 87.223816%)" offset="0.867188"/><stop stop-opacity="1" stop-color="rgb(69.337463%, 40.670776%, 87.310791%)" offset="0.871094"/><stop stop-opacity="1" stop-color="rgb(69.648743%, 40.724182%, 87.399292%)" offset="0.875"/><stop stop-opacity="1" stop-color="rgb(69.960022%, 40.776062%, 87.486267%)" offset="0.878906"/><stop stop-opacity="1" stop-color="rgb(70.271301%, 40.829468%, 87.574768%)" offset="0.882812"/><stop stop-opacity="1" stop-color="rgb(70.581055%, 40.881348%, 87.661743%)" offset="0.886719"/><stop stop-opacity="1" stop-color="rgb(70.892334%, 40.933228%, 87.748718%)" offset="0.890625"/><stop stop-opacity="1" stop-color="rgb(71.203613%, 40.985107%, 87.835693%)" offset="0.894531"/><stop stop-opacity="1" stop-color="rgb(71.514893%, 41.038513%, 87.924194%)" offset="0.898438"/><stop stop-opacity="1" stop-color="rgb(71.826172%, 41.090393%, 88.011169%)" offset="0.902344"/><stop stop-opacity="1" stop-color="rgb(72.137451%, 41.142273%, 88.09967%)" offset="0.90625"/><stop stop-opacity="1" stop-color="rgb(72.447205%, 41.194153%, 88.186646%)" offset="0.910156"/><stop stop-opacity="1" stop-color="rgb(72.758484%, 41.247559%, 88.273621%)" offset="0.914062"/><stop stop-opacity="1" stop-color="rgb(73.069763%, 41.299438%, 88.360596%)" offset="0.917969"/><stop stop-opacity="1" stop-color="rgb(73.381042%, 41.352844%, 88.449097%)" offset="0.921875"/><stop stop-opacity="1" stop-color="rgb(73.690796%, 41.404724%, 88.536072%)" offset="0.925781"/><stop stop-opacity="1" stop-color="rgb(74.002075%, 41.456604%, 88.624573%)" offset="0.929688"/><stop stop-opacity="1" stop-color="rgb(74.313354%, 41.508484%, 88.711548%)" offset="0.933594"/><stop stop-opacity="1" stop-color="rgb(74.624634%, 41.56189%, 88.798523%)" offset="0.9375"/><stop stop-opacity="1" stop-color="rgb(74.934387%, 41.61377%, 88.885498%)" offset="0.941406"/><stop stop-opacity="1" stop-color="rgb(75.245667%, 41.667175%, 88.973999%)" offset="0.945312"/><stop stop-opacity="1" stop-color="rgb(75.556946%, 41.719055%, 89.060974%)" offset="0.949219"/><stop stop-opacity="1" stop-color="rgb(75.868225%, 41.770935%, 89.149475%)" offset="0.953125"/><stop stop-opacity="1" stop-color="rgb(76.177979%, 41.822815%, 89.23645%)" offset="0.957031"/><stop stop-opacity="1" stop-color="rgb(76.489258%, 41.876221%, 89.324951%)" offset="0.960938"/><stop stop-opacity="1" stop-color="rgb(76.800537%, 41.928101%, 89.411926%)" offset="0.964844"/><stop stop-opacity="1" stop-color="rgb(77.111816%, 41.97998%, 89.498901%)" offset="0.96875"/><stop stop-opacity="1" stop-color="rgb(77.42157%, 42.03186%, 89.585876%)" offset="0.972656"/><stop stop-opacity="1" stop-color="rgb(77.732849%, 42.085266%, 89.674377%)" offset="0.976562"/><stop stop-opacity="1" stop-color="rgb(78.044128%, 42.137146%, 89.761353%)" offset="0.980469"/><stop stop-opacity="1" stop-color="rgb(78.355408%, 42.190552%, 89.849854%)" offset="0.984375"/><stop stop-opacity="1" stop-color="rgb(78.666687%, 42.242432%, 89.936829%)" offset="0.988281"/><stop stop-opacity="1" stop-color="rgb(78.977966%, 42.294312%, 90.023804%)" offset="0.992188"/><stop stop-opacity="1" stop-color="rgb(79.28772%, 42.346191%, 90.110779%)" offset="0.996094"/><stop stop-opacity="1" stop-color="rgb(79.598999%, 42.399597%, 90.19928%)" offset="1"/></linearGradient></defs><rect x="-37.5" width="450" fill="#ffffff" y="-7.5" height="89.999996" fill-opacity="1"/><rect x="-37.5" width="450" fill="#ffffff" y="-7.5" height="89.999996" fill-opacity="1"/><g fill="#000000" fill-opacity="1"><g transform="translate(79.009131, 43.6595)"><g><path d="M 16.425781 -10.898438 L 24.613281 -9.59375 C 23.308594 -3.234375 19.191406 0.417969 13.140625 0.417969 C 5.632812 0.417969 1.40625 -4.484375 1.40625 -13.035156 C 1.40625 -21.640625 5.632812 -26.488281 13.140625 -26.488281 C 19.191406 -26.488281 23.308594 -22.890625 24.613281 -16.476562 L 16.425781 -15.175781 C 16.007812 -17.730469 14.808594 -19.191406 13.191406 -19.191406 C 11.003906 -19.191406 9.75 -17 9.75 -13.035156 C 9.75 -9.125 11.003906 -6.933594 13.191406 -6.933594 C 14.914062 -6.933594 16.0625 -8.34375 16.425781 -10.898438 Z M 16.425781 -10.898438 "/></g></g></g><g fill="#000000" fill-opacity="1"><g transform="translate(103.152279, 43.6595)"><g><path d="M 18.71875 -3.804688 L 20.074219 0 L 28.316406 0 L 18.667969 -26.074219 L 10.117188 -26.074219 L 0.363281 0 L 8.550781 0 L 9.960938 -3.804688 Z M 16.425781 -10.0625 L 12.253906 -10.0625 L 14.390625 -17.207031 Z M 16.425781 -10.0625 "/></g></g></g><g fill="#000000" fill-opacity="1"><g transform="translate(129.954829, 43.6595)"><g><path d="M 21.433594 -11.261719 C 23.359375 -12.621094 24.402344 -14.808594 24.402344 -17.730469 C 24.402344 -23.046875 21.171875 -26.074219 15.488281 -26.074219 L 1.722656 -26.074219 L 1.722656 0 L 10.167969 0 L 10.167969 -9.386719 L 13.296875 -9.386719 C 15.382812 -9.019531 16.53125 -7.613281 16.53125 -5.371094 L 16.53125 0 L 24.246094 0 L 24.246094 -4.277344 C 24.246094 -7.40625 23.257812 -9.804688 21.433594 -11.261719 Z M 14.339844 -15.644531 L 10.167969 -15.644531 L 10.167969 -19.554688 L 14.339844 -19.554688 C 15.90625 -19.554688 16.84375 -18.875 16.84375 -17.574219 C 16.84375 -16.375 15.90625 -15.644531 14.339844 -15.644531 Z M 14.339844 -15.644531 "/></g></g></g><g fill="#000000" fill-opacity="1"><g transform="translate(153.941558, 43.6595)"><g><path d="M 10.167969 -19.554688 L 21.691406 -19.554688 L 21.691406 -26.074219 L 1.722656 -26.074219 L 1.722656 0 L 21.691406 0 L 21.691406 -6.519531 L 10.167969 -6.519531 L 10.167969 -9.90625 L 21.691406 -9.90625 L 21.691406 -16.164062 L 10.167969 -16.164062 Z M 10.167969 -19.554688 "/></g></g></g><g fill="#000000" fill-opacity="1"><g transform="translate(175.529594, 43.6595)"><g><path d="M 10.167969 -19.554688 L 21.691406 -19.554688 L 21.691406 -26.074219 L 1.722656 -26.074219 L 1.722656 0 L 21.691406 0 L 21.691406 -6.519531 L 10.167969 -6.519531 L 10.167969 -9.90625 L 21.691406 -9.90625 L 21.691406 -16.164062 L 10.167969 -16.164062 Z M 10.167969 -19.554688 "/></g></g></g><g fill="#000000" fill-opacity="1"><g transform="translate(197.117635, 43.6595)"><g><path d="M 21.433594 -11.261719 C 23.359375 -12.621094 24.402344 -14.808594 24.402344 -17.730469 C 24.402344 -23.046875 21.171875 -26.074219 15.488281 -26.074219 L 1.722656 -26.074219 L 1.722656 0 L 10.167969 0 L 10.167969 -9.386719 L 13.296875 -9.386719 C 15.382812 -9.019531 16.53125 -7.613281 16.53125 -5.371094 L 16.53125 0 L 24.246094 0 L 24.246094 -4.277344 C 24.246094 -7.40625 23.257812 -9.804688 21.433594 -11.261719 Z M 14.339844 -15.644531 L 10.167969 -15.644531 L 10.167969 -19.554688 L 14.339844 -19.554688 C 15.90625 -19.554688 16.84375 -18.875 16.84375 -17.574219 C 16.84375 -16.375 15.90625 -15.644531 14.339844 -15.644531 Z M 14.339844 -15.644531 "/></g></g></g><g clip-path="url(#38d410a4c1)"><g clip-path="url(#fd4dee0110)"><path fill="url(#b7946d673a)" d="M 224.570312 13.550781 L 224.570312 46.390625 L 332.832031 46.390625 L 332.832031 13.550781 Z M 224.570312 13.550781 " fill-rule="nonzero"/></g></g><g fill="#000000" fill-opacity="1"><g transform="translate(228.193918, 42.101951)"><g><path d="M 35.542969 -24.914062 C 31.753906 -24.855469 29.066406 -22.777344 27.785156 -19.113281 C 26.441406 -22.839844 23.390625 -24.914062 19.054688 -24.914062 C 15.816406 -24.855469 13.375 -23.390625 11.90625 -20.578125 L 11.90625 -24.425781 L 2.015625 -24.425781 L 2.015625 0 L 11.90625 0 L 11.90625 -12.152344 C 12.519531 -15.082031 13.800781 -16.671875 15.511719 -16.671875 C 17.527344 -16.671875 18.625 -14.410156 18.625 -10.382812 L 18.625 0 L 28.578125 0 L 28.578125 -12.640625 C 29.191406 -15.207031 30.410156 -16.671875 31.9375 -16.671875 C 33.953125 -16.671875 35.113281 -14.410156 35.113281 -10.382812 L 35.113281 0 L 45.007812 0 L 45.007812 -13.863281 C 45.007812 -20.886719 41.585938 -24.914062 35.542969 -24.914062 Z M 35.542969 -24.914062 "/></g></g></g><g fill="#000000" fill-opacity="1"><g transform="translate(272.711753, 42.101951)"><g><path d="M 28.03125 -24.425781 L 18.074219 -24.425781 L 18.074219 -21.066406 C 16.671875 -23.570312 14.535156 -24.914062 11.847656 -24.914062 C 5.191406 -24.914062 1.464844 -20.335938 1.464844 -12.214844 C 1.464844 -4.152344 5.191406 0.488281 11.847656 0.488281 C 14.535156 0.488281 16.671875 -0.914062 18.074219 -3.417969 L 18.074219 0 L 28.03125 0 Z M 14.71875 -7.511719 C 12.457031 -7.511719 11.238281 -9.222656 11.238281 -12.214844 C 11.238281 -15.265625 12.457031 -16.976562 14.71875 -16.976562 C 16.914062 -16.976562 18.074219 -15.265625 18.074219 -12.214844 C 18.074219 -9.222656 16.914062 -7.511719 14.71875 -7.511719 Z M 14.71875 -7.511719 "/></g></g></g><g fill="#000000" fill-opacity="1"><g transform="translate(300.558291, 42.101951)"><g><path d="M 20.273438 -12.089844 L 29.25 -24.425781 L 18.992188 -24.425781 L 15.023438 -19.113281 L 11.113281 -24.425781 L 0.855469 -24.425781 L 9.832031 -12.089844 L 0.855469 0 L 11.417969 0 L 15.023438 -4.945312 L 18.625 0 L 29.25 0 Z M 20.273438 -12.089844 "/></g></g></g><g fill="#000000" fill-opacity="1"><g transform="translate(42.168849, 40.66192)"><g><path d="M 20.574219 -8.132812 C 20.28125 -8.390625 19.808594 -8.351562 19.550781 -8.0625 C 16.632812 -4.632812 14.664062 -3.757812 13.789062 -4.085938 C 13.023438 -4.378906 12.585938 -5.835938 12.621094 -8.132812 C 12.621094 -8.535156 12.65625 -9.519531 11.855469 -9.703125 C 10.945312 -9.921875 10.285156 -8.863281 8.351562 -4.816406 C 8.023438 -4.121094 7.734375 -3.5 7.550781 -3.136719 C 7.332031 -2.734375 7.1875 -2.515625 7.078125 -2.40625 C 6.894531 -2.773438 6.640625 -3.722656 6.675781 -5.144531 C 6.675781 -5.871094 6.675781 -6.492188 6.710938 -7.003906 C 6.75 -8.609375 6.785156 -9.191406 6.128906 -9.449219 C 5.542969 -9.628906 5.144531 -9.082031 5.035156 -8.902344 C 3.429688 -6.710938 2.007812 -4.488281 0.511719 -1.789062 C 1.09375 -4.304688 2.152344 -7.914062 3.5 -10.945312 C 3.648438 -11.308594 3.5 -11.746094 3.136719 -11.890625 C 2.773438 -12.039062 2.371094 -11.890625 2.1875 -11.527344 C 1.167969 -9.15625 0.144531 -6.128906 -0.621094 -3.136719 C -1.824219 1.679688 -1.351562 1.898438 -0.910156 2.117188 C -0.800781 2.152344 -0.691406 2.1875 -0.582031 2.1875 C -0.21875 2.1875 0.109375 1.933594 0.402344 1.386719 C 2.152344 -1.96875 3.609375 -4.449219 5.289062 -6.894531 C 5.289062 -6.382812 5.253906 -5.800781 5.253906 -5.144531 C 5.253906 -4.011719 5.398438 -1.3125 6.75 -0.949219 C 7.84375 -0.691406 8.535156 -2.042969 8.792969 -2.480469 C 9.011719 -2.882812 9.300781 -3.5 9.628906 -4.195312 C 10.03125 -5.035156 10.6875 -6.421875 11.234375 -7.367188 C 11.308594 -4.816406 12 -3.246094 13.3125 -2.773438 C 15.101562 -2.078125 17.546875 -3.574219 20.648438 -7.148438 C 20.902344 -7.441406 20.867188 -7.878906 20.574219 -8.132812 Z M 20.574219 -8.132812 "/></g></g></g><g fill="#000000" fill-opacity="1"><g transform="translate(59.345688, 40.66192)"><g><path d="M 17.835938 -8.023438 C 17.617188 -8.351562 17.179688 -8.425781 16.851562 -8.207031 C 13.714844 -6.164062 10.503906 -3.902344 7.441406 -1.058594 C 7.878906 -3.757812 8.316406 -6.640625 8.71875 -9.667969 C 8.792969 -9.996094 8.574219 -10.324219 8.242188 -10.433594 C 7.953125 -10.542969 7.585938 -10.394531 7.441406 -10.105469 C 6.710938 -8.863281 5.105469 -6.3125 3.683594 -4.597656 C 3.171875 -3.976562 2.664062 -3.648438 2.40625 -3.832031 C 1.789062 -4.195312 1.351562 -6.710938 2.773438 -10.175781 C 2.917969 -10.542969 2.734375 -10.945312 2.40625 -11.089844 C 2.042969 -11.234375 1.640625 -11.054688 1.496094 -10.6875 C 0 -7.039062 0.0742188 -3.574219 1.714844 -2.625 C 2.117188 -2.335938 3.28125 -1.933594 4.742188 -3.683594 C 5.507812 -4.597656 6.238281 -5.617188 6.894531 -6.601562 C 6.53125 -4.085938 6.164062 -1.679688 5.761719 0.621094 C 2.699219 3.757812 -0.183594 7.550781 -2.664062 12.367188 C -6.820312 20.355469 -7.585938 29.21875 -5.507812 31.773438 C -5.105469 32.28125 -4.597656 32.539062 -4.050781 32.539062 C -3.867188 32.539062 -3.722656 32.5 -3.539062 32.464844 C -1.167969 31.773438 0.949219 26.519531 2.335938 22.214844 C 4.050781 16.851562 5.617188 9.847656 7.078125 1.277344 C 10.46875 -2.117188 14.082031 -4.742188 17.617188 -7.039062 C 17.945312 -7.257812 18.054688 -7.695312 17.835938 -8.023438 Z M 0.984375 21.777344 C -1.640625 30.09375 -3.539062 31.007812 -3.902344 31.117188 C -4.050781 31.152344 -4.195312 31.152344 -4.414062 30.898438 C -5.726562 29.292969 -5.835938 21.523438 -1.421875 12.984375 C 0.621094 9.082031 2.882812 5.871094 5.324219 3.136719 C 4.011719 10.6875 2.554688 16.925781 0.984375 21.777344 Z M 0.984375 21.777344 "/></g></g></g><g fill="#000000" fill-opacity="1"><g transform="translate(237.221124, 68.454682)"><g><path d="M 2.46875 0 L 2.46875 -14.140625 L 4.453125 -14.140625 L 4.453125 -11.921875 L 4.71875 -11.859375 C 5.375 -13.460938 6.613281 -14.265625 8.4375 -14.265625 C 9.394531 -14.265625 10.113281 -14.085938 10.59375 -13.734375 L 10.0625 -11.96875 L 9.8125 -11.921875 C 9.28125 -12.179688 8.695312 -12.3125 8.0625 -12.3125 C 6.9375 -12.3125 6.066406 -11.890625 5.453125 -11.046875 C 4.847656 -10.203125 4.546875 -8.832031 4.546875 -6.9375 L 4.546875 0 Z M 2.46875 0 "/></g></g></g><g fill="#000000" fill-opacity="1"><g transform="translate(248.137138, 68.454682)"><g><path d="M 13.46875 -6.59375 L 3.75 -6.59375 C 3.8125 -4.875 4.222656 -3.613281 4.984375 -2.8125 C 5.753906 -2.007812 6.804688 -1.609375 8.140625 -1.609375 C 9.148438 -1.609375 9.960938 -1.785156 10.578125 -2.140625 C 11.191406 -2.492188 11.671875 -3.054688 12.015625 -3.828125 L 12.296875 -3.828125 L 13.65625 -3.03125 C 13.238281 -2 12.578125 -1.191406 11.671875 -0.609375 C 10.773438 -0.0234375 9.597656 0.265625 8.140625 0.265625 C 6.773438 0.265625 5.597656 0 4.609375 -0.53125 C 3.628906 -1.070312 2.875 -1.890625 2.34375 -2.984375 C 1.8125 -4.078125 1.546875 -5.4375 1.546875 -7.0625 C 1.546875 -8.664062 1.828125 -10.019531 2.390625 -11.125 C 2.953125 -12.226562 3.71875 -13.050781 4.6875 -13.59375 C 5.65625 -14.132812 6.765625 -14.40625 8.015625 -14.40625 C 9.828125 -14.40625 11.238281 -13.894531 12.25 -12.875 C 13.269531 -11.851562 13.785156 -10.335938 13.796875 -8.328125 C 13.796875 -7.546875 13.773438 -7.015625 13.734375 -6.734375 Z M 11.734375 -8.328125 C 11.691406 -9.835938 11.351562 -10.929688 10.71875 -11.609375 C 10.09375 -12.296875 9.191406 -12.640625 8.015625 -12.640625 C 6.773438 -12.640625 5.800781 -12.296875 5.09375 -11.609375 C 4.382812 -10.921875 3.957031 -9.828125 3.8125 -8.328125 Z M 11.734375 -8.328125 "/></g></g></g><g fill="#000000" fill-opacity="1"><g transform="translate(263.204312, 68.454682)"><g><path d="M 6.453125 0.265625 C 5.554688 0.265625 4.726562 0.148438 3.96875 -0.078125 C 3.21875 -0.316406 2.582031 -0.640625 2.0625 -1.046875 C 1.539062 -1.460938 1.175781 -1.925781 0.96875 -2.4375 L 2.1875 -3.71875 L 2.46875 -3.71875 C 2.925781 -3.019531 3.476562 -2.492188 4.125 -2.140625 C 4.769531 -1.785156 5.546875 -1.609375 6.453125 -1.609375 C 7.492188 -1.609375 8.285156 -1.804688 8.828125 -2.203125 C 9.367188 -2.609375 9.640625 -3.175781 9.640625 -3.90625 C 9.640625 -4.46875 9.472656 -4.925781 9.140625 -5.28125 C 8.816406 -5.644531 8.285156 -5.914062 7.546875 -6.09375 L 5.171875 -6.6875 C 3.890625 -7 2.957031 -7.488281 2.375 -8.15625 C 1.789062 -8.820312 1.5 -9.644531 1.5 -10.625 C 1.5 -11.394531 1.691406 -12.0625 2.078125 -12.625 C 2.472656 -13.195312 3.039062 -13.632812 3.78125 -13.9375 C 4.519531 -14.25 5.398438 -14.40625 6.421875 -14.40625 C 7.722656 -14.40625 8.742188 -14.222656 9.484375 -13.859375 C 10.234375 -13.492188 10.816406 -12.988281 11.234375 -12.34375 L 10.0625 -11.1875 L 9.8125 -11.1875 C 9.351562 -11.707031 8.859375 -12.082031 8.328125 -12.3125 C 7.796875 -12.539062 7.160156 -12.65625 6.421875 -12.65625 C 5.492188 -12.65625 4.78125 -12.488281 4.28125 -12.15625 C 3.78125 -11.820312 3.53125 -11.34375 3.53125 -10.71875 C 3.53125 -10.144531 3.707031 -9.679688 4.0625 -9.328125 C 4.414062 -8.984375 5.023438 -8.703125 5.890625 -8.484375 L 8.234375 -7.921875 C 9.472656 -7.628906 10.363281 -7.144531 10.90625 -6.46875 C 11.457031 -5.789062 11.734375 -4.945312 11.734375 -3.9375 C 11.734375 -3.101562 11.535156 -2.367188 11.140625 -1.734375 C 10.742188 -1.109375 10.148438 -0.617188 9.359375 -0.265625 C 8.566406 0.0859375 7.597656 0.265625 6.453125 0.265625 Z M 6.453125 0.265625 "/></g></g></g><g fill="#000000" fill-opacity="1"><g transform="translate(276.27278, 68.454682)"><g><path d="M 6.984375 0.265625 C 5.390625 0.265625 4.203125 -0.15625 3.421875 -1 C 2.640625 -1.84375 2.25 -3.082031 2.25 -4.71875 L 2.25 -14.140625 L 4.328125 -14.140625 L 4.328125 -4.765625 C 4.328125 -2.617188 5.335938 -1.546875 7.359375 -1.546875 C 8.640625 -1.546875 9.648438 -1.960938 10.390625 -2.796875 C 11.140625 -3.640625 11.515625 -5.003906 11.515625 -6.890625 L 11.515625 -14.140625 L 13.59375 -14.140625 L 13.59375 0 L 11.625 0 L 11.625 -2.21875 L 11.359375 -2.28125 C 10.867188 -1.414062 10.285156 -0.773438 9.609375 -0.359375 C 8.929688 0.0546875 8.054688 0.265625 6.984375 0.265625 Z M 6.984375 0.265625 "/></g></g></g><g fill="#000000" fill-opacity="1"><g transform="translate(292.326496, 68.454682)"><g><path d="M 2.46875 0 L 2.46875 -14.140625 L 4.453125 -14.140625 L 4.453125 -12.046875 L 4.71875 -12 C 5.195312 -12.789062 5.773438 -13.390625 6.453125 -13.796875 C 7.128906 -14.203125 7.941406 -14.40625 8.890625 -14.40625 C 9.984375 -14.40625 10.828125 -14.195312 11.421875 -13.78125 C 12.023438 -13.363281 12.492188 -12.695312 12.828125 -11.78125 L 13.09375 -11.78125 C 13.582031 -12.644531 14.179688 -13.296875 14.890625 -13.734375 C 15.609375 -14.179688 16.488281 -14.40625 17.53125 -14.40625 C 18.988281 -14.40625 20.070312 -14.007812 20.78125 -13.21875 C 21.5 -12.4375 21.859375 -11.242188 21.859375 -9.640625 L 21.859375 0 L 19.765625 0 L 19.765625 -9.59375 C 19.765625 -10.613281 19.546875 -11.367188 19.109375 -11.859375 C 18.679688 -12.347656 17.988281 -12.59375 17.03125 -12.59375 C 15.90625 -12.59375 14.984375 -12.179688 14.265625 -11.359375 C 13.554688 -10.535156 13.203125 -9.1875 13.203125 -7.3125 L 13.203125 0 L 11.109375 0 L 11.109375 -9.59375 C 11.109375 -10.613281 10.890625 -11.367188 10.453125 -11.859375 C 10.023438 -12.347656 9.332031 -12.59375 8.375 -12.59375 C 7.25 -12.59375 6.328125 -12.191406 5.609375 -11.390625 C 4.898438 -10.597656 4.546875 -9.3125 4.546875 -7.53125 L 4.546875 0 Z M 2.46875 0 "/></g></g></g><g fill="#000000" fill-opacity="1"><g transform="translate(316.413476, 68.454682)"><g><path d="M 13.46875 -6.59375 L 3.75 -6.59375 C 3.8125 -4.875 4.222656 -3.613281 4.984375 -2.8125 C 5.753906 -2.007812 6.804688 -1.609375 8.140625 -1.609375 C 9.148438 -1.609375 9.960938 -1.785156 10.578125 -2.140625 C 11.191406 -2.492188 11.671875 -3.054688 12.015625 -3.828125 L 12.296875 -3.828125 L 13.65625 -3.03125 C 13.238281 -2 12.578125 -1.191406 11.671875 -0.609375 C 10.773438 -0.0234375 9.597656 0.265625 8.140625 0.265625 C 6.773438 0.265625 5.597656 0 4.609375 -0.53125 C 3.628906 -1.070312 2.875 -1.890625 2.34375 -2.984375 C 1.8125 -4.078125 1.546875 -5.4375 1.546875 -7.0625 C 1.546875 -8.664062 1.828125 -10.019531 2.390625 -11.125 C 2.953125 -12.226562 3.71875 -13.050781 4.6875 -13.59375 C 5.65625 -14.132812 6.765625 -14.40625 8.015625 -14.40625 C 9.828125 -14.40625 11.238281 -13.894531 12.25 -12.875 C 13.269531 -11.851562 13.785156 -10.335938 13.796875 -8.328125 C 13.796875 -7.546875 13.773438 -7.015625 13.734375 -6.734375 Z M 11.734375 -8.328125 C 11.691406 -9.835938 11.351562 -10.929688 10.71875 -11.609375 C 10.09375 -12.296875 9.191406 -12.640625 8.015625 -12.640625 C 6.773438 -12.640625 5.800781 -12.296875 5.09375 -11.609375 C 4.382812 -10.921875 3.957031 -9.828125 3.8125 -8.328125 Z M 11.734375 -8.328125 "/></g></g></g></svg>