<svg version="1.1" id="Layer_1" xmlns="http://www.w3.org/2000/svg" xmlns:xlink="http://www.w3.org/1999/xlink" x="0px" y="0px"
	 width="100%" viewBox="0 0 1080 1080" enable-background="new 0 0 1080 1080" xml:space="preserve">
<path fill="#000000" opacity="1.000000" stroke="none" 
	d="
M1.000000,415.000000 
	C1.000000,276.682587 1.000000,138.865143 1.000000,1.023858 
	C360.942535,1.023858 720.885071,1.023858 1080.913818,1.023858 
	C1080.913818,360.900970 1080.913818,720.802002 1080.913818,1080.851562 
	C721.000061,1080.851562 361.000031,1080.851562 1.000000,1080.851562 
	C1.000000,859.114441 1.000000,637.307190 1.000000,415.000000 
M385.500000,111.000000 
	C462.261505,111.000000 539.023010,111.000000 616.000000,111.000000 
	C616.000000,113.383896 616.000000,115.197235 616.000000,117.010567 
	C616.000000,173.510300 616.088562,230.010315 615.916687,286.509521 
	C615.886475,296.438965 617.646240,305.973114 620.780518,315.194366 
	C625.141663,328.025085 633.083252,338.510498 643.583374,347.143524 
	C657.605164,358.672089 673.743652,364.811035 691.724548,364.897247 
	C749.389587,365.173706 807.056824,365.000000 864.723206,365.000000 
	C866.465332,365.000000 868.207397,365.000000 870.000000,365.000000 
	C870.000000,425.903198 869.945007,486.069183 870.149963,546.234314 
	C870.161194,549.505432 871.770447,553.147583 873.625549,555.965454 
	C879.195557,564.426086 887.369629,567.038757 897.452637,567.248474 
	C909.267944,567.494080 921.187439,554.437500 921.143799,543.704346 
	C920.862671,474.539185 920.988342,405.372284 921.019043,336.205963 
	C921.021912,329.663269 918.609070,324.143982 914.078491,319.653656 
	C904.864624,310.521881 895.337036,301.705078 886.179321,292.518677 
	C874.054688,280.355988 862.212891,267.911835 850.151794,255.685150 
	C839.333557,244.718506 828.383057,233.882309 817.490662,222.988831 
	C807.777954,213.275269 798.065308,203.561707 788.352112,193.848709 
	C776.634583,182.131470 764.916199,170.415070 753.198669,158.697784 
	C742.188293,147.687561 731.237000,136.617447 720.147217,125.687828 
	C713.281982,118.921761 706.064514,112.510582 699.262085,105.684067 
	C690.812195,97.204224 682.648743,88.439407 674.318359,79.839577 
	C670.698486,76.102600 666.740906,72.669060 663.343750,68.745270 
	C657.662231,62.182980 650.874207,59.828163 642.092651,59.844784 
	C520.760315,60.074493 399.427399,60.050640 278.094788,59.908707 
	C267.831116,59.896702 257.961670,61.450283 248.511063,65.019737 
	C234.081589,70.469711 220.334183,76.981461 208.119919,86.997093 
	C195.035294,97.726387 184.308228,110.071396 176.100677,124.663010 
	C170.436020,134.733780 165.461502,145.196838 164.027115,156.881989 
	C162.895401,166.101486 161.163559,175.347214 161.132736,184.586090 
	C160.892624,256.584930 161.000000,328.584961 161.000000,400.584595 
	C161.000000,448.417694 160.970337,496.250854 161.032059,544.083862 
	C161.041306,551.248413 164.385345,556.698608 169.773575,561.508789 
	C175.624420,566.731934 182.297195,566.823608 189.411667,567.121094 
	C198.832901,567.515137 212.264389,555.695618 212.228806,544.349304 
	C211.857651,426.017731 211.955078,307.684448 212.119827,189.351913 
	C212.128983,182.770691 213.328247,176.056992 214.918610,169.639145 
	C218.599533,154.785049 226.371170,142.438583 237.468140,131.624084 
	C244.844864,124.435143 253.479767,120.111343 262.497192,116.370987 
	C272.615082,112.174187 283.508728,110.965881 294.500458,110.983482 
	C324.500214,111.031502 354.500153,111.000000 385.500000,111.000000 
M184.787354,719.000000 
	C421.736450,719.000000 658.685547,719.024231 895.634644,718.955261 
	C915.218628,718.949524 924.790649,702.155884 920.019592,684.682068 
	C916.550720,671.977295 907.253601,666.073303 893.843384,666.067932 
	C658.560608,665.973999 423.277771,666.000000 187.994980,666.000000 
	C187.495087,666.000000 186.988113,665.944885 186.496338,666.008057 
	C173.875580,667.630005 165.930313,671.098877 162.189377,683.797424 
	C157.561951,699.505066 163.400284,716.059753 184.787354,719.000000 
M480.500000,819.000000 
	C382.500366,819.000000 284.500702,818.983948 186.501129,819.065186 
	C182.977997,819.068054 179.413742,819.835876 175.941620,820.585327 
	C168.604004,822.169067 160.266800,832.900208 160.898758,845.185547 
	C161.806427,862.830688 170.955246,870.835876 186.702316,870.850342 
	C422.868103,871.066528 659.034241,871.046936 895.200012,870.847534 
	C905.888794,870.838501 915.185852,866.926819 919.409363,855.269714 
	C922.917603,845.586548 920.810974,832.147278 913.432373,824.921692 
	C908.550232,820.140869 902.365234,819.045532 895.998779,819.042969 
	C757.832520,818.986572 619.666260,819.000000 480.500000,819.000000 
M261.500000,971.000000 
	C235.834152,971.000000 210.166992,970.851196 184.503143,971.078308 
	C175.138168,971.161133 167.436554,975.101746 163.506058,984.071472 
	C159.444046,993.341370 159.569000,1002.489868 164.849457,1011.610046 
	C168.706146,1018.271057 173.982666,1021.965210 181.538193,1021.966492 
	C421.196167,1022.007324 660.854187,1022.001465 900.512146,1021.968384 
	C902.092773,1021.968201 903.705200,1021.613831 905.248596,1021.215149 
	C913.786926,1019.009827 921.570557,1008.012207 921.164124,996.239014 
	C920.625366,980.632874 910.669922,971.012817 895.977051,971.011658 
	C684.818054,970.994629 473.659027,971.000000 261.500000,971.000000 
z"/>
<path fill="#FFFFFF" opacity="1.000000" stroke="none" 
	d="
M385.000000,111.000000 
	C354.500153,111.000000 324.500214,111.031502 294.500458,110.983482 
	C283.508728,110.965881 272.615082,112.174187 262.497192,116.370987 
	C253.479767,120.111343 244.844864,124.435143 237.468140,131.624084 
	C226.371170,142.438583 218.599533,154.785049 214.918610,169.639145 
	C213.328247,176.056992 212.128983,182.770691 212.119827,189.351913 
	C211.955078,307.684448 211.857651,426.017731 212.228806,544.349304 
	C212.264389,555.695618 198.832901,567.515137 189.411667,567.121094 
	C182.297195,566.823608 175.624420,566.731934 169.773575,561.508789 
	C164.385345,556.698608 161.041306,551.248413 161.032059,544.083862 
	C160.970337,496.250854 161.000000,448.417694 161.000000,400.584595 
	C161.000000,328.584961 160.892624,256.584930 161.132736,184.586090 
	C161.163559,175.347214 162.895401,166.101486 164.027115,156.881989 
	C165.461502,145.196838 170.436020,134.733780 176.100677,124.663010 
	C184.308228,110.071396 195.035294,97.726387 208.119919,86.997093 
	C220.334183,76.981461 234.081589,70.469711 248.511063,65.019737 
	C257.961670,61.450283 267.831116,59.896702 278.094788,59.908707 
	C399.427399,60.050640 520.760315,60.074493 642.092651,59.844784 
	C650.874207,59.828163 657.662231,62.182980 663.343750,68.745270 
	C666.740906,72.669060 670.698486,76.102600 674.318359,79.839577 
	C682.648743,88.439407 690.812195,97.204224 699.262085,105.684067 
	C706.064514,112.510582 713.281982,118.921761 720.147217,125.687828 
	C731.237000,136.617447 742.188293,147.687561 753.198669,158.697784 
	C764.916199,170.415070 776.634583,182.131470 788.352112,193.848709 
	C798.065308,203.561707 807.777954,213.275269 817.490662,222.988831 
	C828.383057,233.882309 839.333557,244.718506 850.151794,255.685150 
	C862.212891,267.911835 874.054688,280.355988 886.179321,292.518677 
	C895.337036,301.705078 904.864624,310.521881 914.078491,319.653656 
	C918.609070,324.143982 921.021912,329.663269 921.019043,336.205963 
	C920.988342,405.372284 920.862671,474.539185 921.143799,543.704346 
	C921.187439,554.437500 909.267944,567.494080 897.452637,567.248474 
	C887.369629,567.038757 879.195557,564.426086 873.625549,555.965454 
	C871.770447,553.147583 870.161194,549.505432 870.149963,546.234314 
	C869.945007,486.069183 870.000000,425.903198 870.000000,365.000000 
	C868.207397,365.000000 866.465332,365.000000 864.723206,365.000000 
	C807.056824,365.000000 749.389587,365.173706 691.724548,364.897247 
	C673.743652,364.811035 657.605164,358.672089 643.583374,347.143524 
	C633.083252,338.510498 625.141663,328.025085 620.780518,315.194366 
	C617.646240,305.973114 615.886475,296.438965 615.916687,286.509521 
	C616.088562,230.010315 616.000000,173.510300 616.000000,117.010567 
	C616.000000,115.197235 616.000000,113.383896 616.000000,111.000000 
	C539.023010,111.000000 462.261505,111.000000 385.000000,111.000000 
M723.997742,204.497208 
	C717.842407,198.345230 711.723755,192.155807 705.509338,186.064117 
	C703.650146,184.241608 701.360291,182.851089 699.546326,180.990936 
	C690.608826,171.825775 681.811523,162.523422 672.822754,153.409485 
	C671.825745,152.398575 669.925842,152.278198 668.000000,151.584671 
	C668.000000,154.237122 668.000000,155.896378 668.000000,157.555634 
	C668.000000,200.386078 667.920227,243.216751 668.044312,286.046844 
	C668.086304,300.560760 678.340576,312.022156 694.061707,312.010803 
	C737.392090,311.979523 780.722534,312.000000 824.052917,312.000000 
	C825.645386,312.000000 827.237854,312.000000 828.830322,312.000000 
	C829.150452,311.511078 829.470520,311.022125 829.790649,310.533203 
	C794.694763,275.356232 759.598938,240.179260 723.997742,204.497208 
z"/>
<path fill="#FFFFFF" opacity="1.000000" stroke="none" 
	d="
M184.323380,719.000000 
	C163.400284,716.059753 157.561951,699.505066 162.189377,683.797424 
	C165.930313,671.098877 173.875580,667.630005 186.496338,666.008057 
	C186.988113,665.944885 187.495087,666.000000 187.994980,666.000000 
	C423.277771,666.000000 658.560608,665.973999 893.843384,666.067932 
	C907.253601,666.073303 916.550720,671.977295 920.019592,684.682068 
	C924.790649,702.155884 915.218628,718.949524 895.634644,718.955261 
	C658.685547,719.024231 421.736450,719.000000 184.323380,719.000000 
z"/>
<path fill="#FFFFFF" opacity="1.000000" stroke="none" 
	d="
M481.000000,819.000000 
	C619.666260,819.000000 757.832520,818.986572 895.998779,819.042969 
	C902.365234,819.045532 908.550232,820.140869 913.432373,824.921692 
	C920.810974,832.147278 922.917603,845.586548 919.409363,855.269714 
	C915.185852,866.926819 905.888794,870.838501 895.200012,870.847534 
	C659.034241,871.046936 422.868103,871.066528 186.702316,870.850342 
	C170.955246,870.835876 161.806427,862.830688 160.898758,845.185547 
	C160.266800,832.900208 168.604004,822.169067 175.941620,820.585327 
	C179.413742,819.835876 182.977997,819.068054 186.501129,819.065186 
	C284.500702,818.983948 382.500366,819.000000 481.000000,819.000000 
z"/>
<path fill="#FFFFFF" opacity="1.000000" stroke="none" 
	d="
M262.000000,971.000000 
	C473.659027,971.000000 684.818054,970.994629 895.977051,971.011658 
	C910.669922,971.012817 920.625366,980.632874 921.164124,996.239014 
	C921.570557,1008.012207 913.786926,1019.009827 905.248596,1021.215149 
	C903.705200,1021.613831 902.092773,1021.968201 900.512146,1021.968384 
	C660.854187,1022.001465 421.196167,1022.007324 181.538193,1021.966492 
	C173.982666,1021.965210 168.706146,1018.271057 164.849457,1011.610046 
	C159.569000,1002.489868 159.444046,993.341370 163.506058,984.071472 
	C167.436554,975.101746 175.138168,971.161133 184.503143,971.078308 
	C210.166992,970.851196 235.834152,971.000000 262.000000,971.000000 
z"/>
<path fill="#000000" opacity="1.000000" stroke="none" 
	d="
M724.250366,204.749756 
	C759.598938,240.179260 794.694763,275.356232 829.790649,310.533203 
	C829.470520,311.022125 829.150452,311.511078 828.830322,312.000000 
	C827.237854,312.000000 825.645386,312.000000 824.052917,312.000000 
	C780.722534,312.000000 737.392090,311.979523 694.061707,312.010803 
	C678.340576,312.022156 668.086304,300.560760 668.044312,286.046844 
	C667.920227,243.216751 668.000000,200.386078 668.000000,157.555634 
	C668.000000,155.896378 668.000000,154.237122 668.000000,151.584671 
	C669.925842,152.278198 671.825745,152.398575 672.822754,153.409485 
	C681.811523,162.523422 690.608826,171.825775 699.546326,180.990936 
	C701.360291,182.851089 703.650146,184.241608 705.509338,186.064117 
	C711.723755,192.155807 717.842407,198.345230 724.250366,204.749756 
z"/>
</svg>